<svg width="51" height="90" viewBox="0 0 51 90" fill="none" xmlns="http://www.w3.org/2000/svg">
<path fill-rule="evenodd" clip-rule="evenodd" d="M41.176 71.133C40.511 71.6539 40.1989 72.4086 40.0652 73.257C39.9916 73.725 39.5643 73.789 39.2429 73.8712C38.9648 73.9427 38.7081 73.952 38.4832 74.1815C38.3903 74.2766 38.1 74.2974 37.9781 74.223C37.588 73.9853 37.1705 73.8115 36.8104 73.4944C35.5427 72.379 34.6135 70.9993 33.7437 69.5918C32.8564 68.1557 31.9276 66.735 31.248 65.1773C31.0367 64.6925 31.0281 64.6965 31.5601 64.32C31.9927 65.1426 32.3959 65.9778 32.8628 66.7757C33.2332 67.4089 33.6812 67.9959 34.1323 68.6584C34.2385 68.3917 34.236 68.2208 34.0712 67.983C33.1739 66.6867 32.3219 65.3611 31.6462 63.8431C31.7542 63.7727 31.8847 63.6872 32.0145 63.6028C32.0445 63.6286 32.1113 63.6865 32.2257 63.7855V63.245C32.5464 63.181 32.8371 63.1234 33.2153 63.0483C33.5103 63.186 33.6504 63.7079 34.1359 63.7727C34.1202 64.3007 34.5817 64.5638 34.8138 64.9496C35.1015 65.4279 35.4916 65.8444 35.7676 66.198C36.0793 66.1565 36.3124 66.1129 36.5477 66.0965C37.3735 66.0385 37.3535 66.0646 37.868 66.5183C38.4396 67.0224 38.8307 67.7278 39.5679 68.0481C39.6155 68.0685 39.6684 68.1407 39.6709 68.1911C39.6938 68.7216 39.9908 68.9143 40.4888 69.0431C40.9068 69.1514 41.0255 69.5918 41.0451 70.0251C41.0601 70.3573 41.1213 70.6872 41.176 71.133Z" fill="black"/>
<path fill-rule="evenodd" clip-rule="evenodd" d="M30.6462 46.4367C30.1636 45.9541 29.7585 45.4814 29.2862 45.0896C27.9316 43.9656 27.2885 42.3754 26.4784 40.8953C26.1144 40.2307 26.2185 39.4842 26.2342 38.7653C26.2371 38.6405 26.4094 38.5193 26.5102 38.3885C26.6478 38.6609 26.7769 38.9161 26.9653 39.2887V37.9577C27.2488 37.8172 27.5287 37.7407 27.7196 37.5669C27.9567 37.3513 28.2244 37.3939 28.4418 37.4486C28.6949 37.5122 28.9109 37.7235 29.1654 37.8851C29.0163 38.5837 29.2913 39.1685 29.632 39.7781C29.9369 39.6955 30.2969 39.9122 30.6022 39.599C30.6669 39.5325 30.8793 39.5271 30.9708 39.5822C31.7187 40.0323 32.6365 40.2711 33.0147 41.1949C33.0826 41.3615 33.1581 41.5767 33.2946 41.6507C33.5006 41.7623 33.3157 42.1105 33.6693 42.1241C33.9603 42.1352 33.7744 42.4319 33.8266 42.5935C33.8913 42.7937 33.9796 42.9896 34.0147 43.1948C34.0468 43.3829 34.0215 43.5809 34.0215 43.7761C33.2728 44.4182 32.7916 45.2362 32.4227 46.1475C31.8238 46.2447 31.2161 46.3438 30.6462 46.4367Z" fill="black"/>
<path fill-rule="evenodd" clip-rule="evenodd" d="M6.3005 8.69688C5.88472 8.97931 5.48431 9.26246 5.06709 9.51736C5.02669 9.54203 4.88155 9.39509 4.72496 9.2857C4.62914 9.45766 4.56408 9.61532 4.46254 9.74402C4.34314 9.89596 4.18977 10.0211 4.05427 10.1609C3.7797 10.4437 3.51515 10.7586 3.10937 10.3289C3.07827 10.2964 2.98389 10.3285 2.91989 10.3218C2.46407 10.2724 2.0297 10.3861 1.57101 10.0193C1.20171 9.724 0.731582 9.51986 0.38444 9.15735C0.0591073 8.817 -0.277666 8.49739 -0.504684 8.06552C-0.852898 7.40234 -1.19682 6.74667 -1.07277 5.96837C-1.04166 5.77317 -0.907597 5.59406 -0.786401 5.33272C-0.54115 5.53364 -0.375266 5.66949 -0.181496 5.82858C-0.0227622 5.30197 -0.0552955 4.68992 0.432704 4.22587C0.623971 4.36887 0.808804 4.50687 1.0394 4.67919V3.96811C1.68005 3.85871 2.26208 3.63848 2.90416 3.67709C3.2724 3.69926 3.59058 3.81581 3.82368 4.03925C4.12327 4.32597 4.49007 4.53118 4.73461 4.8987C4.95555 5.23119 5.25764 5.50933 5.48967 5.85182C5.87042 6.4149 5.99912 7.07307 6.27762 7.67226C6.41061 7.95791 6.3005 8.35689 6.3005 8.69688Z" fill="black"/>
<path fill-rule="evenodd" clip-rule="evenodd" d="M45.4867 27.6546C45.5124 27.4748 45.5381 27.2946 45.5667 27.0966C45.6375 27.148 45.7004 27.1684 45.7169 27.2081C45.9668 27.8194 46.2782 28.4054 46.4251 29.0593C46.5173 29.4704 46.635 29.864 46.2371 30.1844C45.9661 30.4024 46.241 31.0288 45.6314 30.9938C45.344 31.4553 44.8835 31.4092 44.4431 31.3777C44.3437 31.6866 44.2818 31.9876 44.1521 32.2561C44.0058 32.5586 43.5386 32.644 43.0377 32.501C42.9233 32.4685 42.8128 32.3573 42.7081 32.3666C41.8965 32.4374 41.898 32.4435 41.5566 31.8035C41.386 31.4843 41.1801 31.1793 41.0478 30.845C40.8869 30.4375 40.6367 30.1829 40.2252 30.007C39.6142 29.7457 39.2174 29.2159 39.1119 28.5856C39.0165 28.015 39.2835 27.4916 39.793 27.0805C40.0454 27.4101 40.2971 27.7387 40.6499 28.1991C40.6499 27.7279 40.6449 27.4108 40.6513 27.0941C40.6578 26.7791 40.6921 26.8434 41.1905 26.6189C41.5465 26.4584 42.0624 26.6529 42.2673 26.1588C42.6191 26.1452 42.9705 26.1324 43.3223 26.1188C43.9719 26.093 44.5482 26.1638 44.851 26.886C44.9711 27.172 45.2589 27.3879 45.4867 27.6546Z" fill="black"/>
<path fill-rule="evenodd" clip-rule="evenodd" d="M21.1354 77.2286C20.6309 77.2143 20.1536 77.0781 19.9098 77.6372C19.498 77.0945 19.4494 76.7095 19.8687 76.2783C20.1583 75.9809 20.3492 75.6094 20.7182 75.3524C21.041 75.1272 21.1597 74.6292 21.4378 74.312C21.6516 74.0682 21.9727 73.9181 22.2461 73.7268C22.3316 73.8101 22.4238 73.9009 22.5693 74.0436C22.4149 74.1533 22.2633 74.2613 22.1114 74.3689C22.1282 74.4079 22.1453 74.4468 22.1621 74.4858C22.3845 74.4508 22.6065 74.4157 22.8564 74.3764C22.9229 74.4761 23.0001 74.7321 23.1657 74.8183C24.1599 75.336 24.7945 76.2001 25.3987 77.087C25.5971 77.378 25.6654 77.7545 25.8248 78.0766C26.2184 78.8728 26.32 79.0197 26.2002 79.7433C26.1137 80.2664 26.0182 80.8241 25.6074 81.2502C25.4451 81.4183 25.2721 81.661 25.2635 81.8762C25.2421 82.4196 24.9436 82.5065 24.5045 82.4786C24.3819 82.4708 24.2521 82.4865 24.1327 82.5187C23.3669 82.7246 23.2879 82.7031 22.9061 82.1161C22.3405 81.247 22.0703 80.2531 21.7413 79.2871C21.509 78.6047 21.3316 77.9029 21.1354 77.2286Z" fill="black"/>
<path fill-rule="evenodd" clip-rule="evenodd" d="M8.73725 66.5317C8.19563 66.2243 7.64721 65.9551 7.20568 65.51C6.38306 64.6791 5.50001 63.9008 4.74102 63.0156C3.94306 62.0851 3.09826 61.1677 2.6167 60.0766C2.66747 59.6458 3.22875 60.1034 3.23948 59.595C3.2427 59.4499 3.59842 59.3097 3.79576 59.1721C4.28555 58.8303 4.55905 58.7731 4.91584 59.1528C5.26799 59.5278 5.67519 59.6622 6.13602 59.7598C6.84782 59.9107 7.33904 60.4573 7.94823 60.7937C8.59997 61.1534 9.06437 61.7325 9.59384 62.2356C9.86805 62.4958 10.2088 62.6957 10.4444 62.9838C10.6814 63.2738 10.8991 63.6223 10.9831 63.9788C11.0339 64.1958 10.8709 64.5233 10.705 64.7167C10.5001 64.9551 10.4032 65.2994 10.0447 65.4149C9.83731 65.4814 9.86662 65.7131 9.82623 65.904C9.77975 66.1231 9.71862 66.3898 9.33823 66.1145C9.07224 65.9226 8.84844 66.195 8.73725 66.5317Z" fill="black"/>
<path fill-rule="evenodd" clip-rule="evenodd" d="M47.9896 60.8927C46.8784 60.435 46.4008 59.5842 45.926 58.7573C45.5088 58.0304 45.1284 57.2736 44.8181 56.4953C44.5088 55.7181 43.9694 54.9816 44.21 54.0035C44.9128 54.4932 44.8546 55.4296 45.5295 56.0556C45.4058 55.0653 44.8921 54.3002 44.6358 53.257C44.9904 53.4515 45.1191 53.5219 45.2764 53.6081C45.3068 53.4382 45.3386 53.2602 45.3701 53.0829C45.664 53.0271 45.9539 52.972 46.2964 52.907C46.3872 53.0521 46.5062 53.2666 46.6478 53.4654C47.1998 54.2387 47.203 54.2351 48.2055 54.5916C48.3174 54.6316 48.4221 54.6967 48.5237 54.761C49.3002 55.2515 50.007 55.8042 50.4342 56.6569C50.5922 56.9722 50.8074 57.5514 50.7978 57.8871C50.7956 57.9657 50.8614 58.058 50.9186 58.1245C51.0645 58.2936 50.9987 58.4376 50.8478 58.5231C50.4099 58.7701 50.22 59.2563 49.8311 59.5474C49.6652 59.6714 49.6355 59.8366 49.6055 60.0414C49.564 60.3203 49.017 60.6817 48.7625 60.6231C48.6048 60.5866 48.5029 60.297 48.2881 60.5105C48.1755 60.6227 48.0897 60.7622 47.9896 60.8927Z" fill="black"/>
<path fill-rule="evenodd" clip-rule="evenodd" d="M16.4155 38.1711C16.2454 38.1993 16.067 38.2286 15.8206 38.2694C15.9179 38.4517 15.9872 38.5811 16.0598 38.717C15.5968 39.18 15.1149 39.6619 14.618 40.1592C14.5379 40.1592 14.4399 40.1445 14.3477 40.1613C13.2541 40.3637 12.5258 39.743 11.9184 38.9948C11.444 38.4102 11.0361 37.7664 10.7186 37.0639C10.5206 36.6252 10.3436 36.2212 10.4852 35.6252C10.817 36.3546 11.1126 37.0038 11.4083 37.6534C11.4608 37.6362 11.5134 37.6194 11.5663 37.6023C11.5423 37.4786 11.5388 37.3459 11.4909 37.2322C11.2932 36.7625 11.0683 36.3034 10.882 35.8297C10.7994 35.6199 10.6225 35.3585 11.0733 35.2609C11.2124 35.2309 11.2939 34.931 11.4001 34.7533C11.493 34.5974 11.5831 34.4397 11.6567 34.3139C12.1126 34.2721 12.1169 34.6707 12.4011 34.8351C12.3349 34.5842 12.2688 34.3332 12.1816 34.0029C12.3274 33.8874 12.5223 33.7329 12.7171 33.5781C12.8401 33.7004 13.0031 33.8953 13.1543 33.536C13.3184 33.1477 13.5608 32.9965 13.9537 33.2514C13.9895 33.2746 14.0635 33.2925 14.0871 33.2732C14.5422 32.8982 14.8103 33.2718 15.0209 33.5585C15.5236 34.2438 15.7602 35.0668 16.0613 35.8498C16.132 36.0335 16.2861 36.465 15.7677 36.4858C15.7384 36.4868 15.7159 36.6481 15.6905 36.7346C15.7985 36.7607 15.9644 36.8443 16.0055 36.8029C16.2961 36.5115 16.4527 36.8919 16.4241 36.9588C16.2493 37.3695 16.6544 37.7664 16.4155 38.1711Z" fill="black"/>
<path fill-rule="evenodd" clip-rule="evenodd" d="M12.8852 17.3657C12.9996 17.4802 13.1143 17.5949 13.2884 17.7687C13.3202 17.493 13.3467 17.2656 13.3757 17.0175C13.7768 16.9335 14.1904 16.8277 14.6105 16.7655C14.8643 16.728 15.1325 16.729 15.3856 16.768C15.5786 16.798 15.427 17.1577 15.7871 17.1891C16.0198 17.2095 16.1986 17.6049 16.3641 17.8802C16.4985 18.1036 16.2972 18.5874 16.8077 18.5584C16.8253 18.8748 16.8428 19.1915 16.861 19.5079C16.8624 19.5387 16.8696 19.5691 16.8742 19.5998L18.3229 21.0484C18.478 21.0484 18.6425 21.0284 18.7994 21.0531C19.0415 21.0921 19.3021 21.332 19.178 21.4807C18.902 21.8114 19.3968 22.0398 19.2006 22.3097C18.4466 22.5357 18.2088 22.5607 17.5953 22.4535C17.7491 22.7856 17.8828 23.0752 18.0508 23.4391C17.9528 23.5331 17.8238 23.7623 17.6965 23.7616C16.8932 23.7555 16.0477 23.9593 15.3316 23.3891C15.1375 23.2343 14.9029 23.1131 14.7521 22.9239C14.4078 22.4928 14.0996 22.0327 13.7854 21.5779C13.6306 21.3538 13.4983 21.1135 13.3496 20.8847C13.1193 20.5304 13.1876 20.0199 12.7654 19.7664C12.8294 19.3367 12.587 19.0117 12.4322 18.641C12.2216 18.1373 12.3521 17.6553 12.8852 17.3657Z" fill="black"/>
<path fill-rule="evenodd" clip-rule="evenodd" d="M-0.495182 38.8666C-0.495182 38.7697 -0.51842 38.635 -0.486959 38.5141C-0.465866 38.4333 -0.32751 38.3783 -0.315354 38.3007C-0.302127 38.216 -0.401514 38.1187 -0.402587 38.0265C-0.403302 37.9446 -0.288184 37.8441 -0.310707 37.7837C-0.35182 37.6725 -0.444058 37.5696 -0.538798 37.4924C-0.601719 37.4409 -0.706469 37.4402 -0.835888 37.4051C-0.775111 37.6164 -0.726132 37.7866 -0.676796 37.9571C-1.02108 37.7473 -1.40361 37.5799 -1.23523 37.0741C-1.09294 37.1348 -0.953151 37.1953 -0.779759 37.2696C-0.723987 36.6608 -1.28849 36.9775 -1.50586 36.6894C-1.18768 36.7269 -0.975674 36.5078 -0.655703 36.5503C-0.507337 36.57 -0.314282 36.2547 -0.0869063 36.0394C0.228774 36.2972 0.582708 36.5857 0.996703 36.9236C1.0371 36.6765 1.06606 36.5006 1.1011 36.2865C1.56908 36.196 2.04885 36.1034 2.53399 36.0098C2.78318 36.3279 2.97802 36.6182 3.2154 36.8681C3.42133 37.0841 3.70448 37.2282 3.90289 37.4495C4.46275 38.0744 4.71658 38.8634 4.94682 39.6438C5.0294 39.9231 5.12021 40.3649 4.58645 40.4397C4.58895 40.9523 4.0484 41.0288 3.80458 41.3538C3.49891 41.7607 2.95835 41.8307 2.3749 41.5951C1.50115 41.2423 0.926989 40.5601 0.368918 39.8959C0.0897031 39.563 -0.223832 39.2492 -0.495182 38.8666Z" fill="black"/>
<path fill-rule="evenodd" clip-rule="evenodd" d="M15.5733 51.5111C15.7306 51.5647 15.8825 51.6162 16.0566 51.6755C16.092 50.8554 15.2444 50.6255 15.1264 49.8705C15.298 49.9463 15.4378 49.9784 15.539 50.0589C15.7013 50.1883 15.8378 50.3492 16.0402 50.5515C15.9712 50.1404 15.9254 50.046 15.6909 49.7646C16.2036 49.1447 16.2036 49.1447 16.8088 49.1426C17.1417 49.5176 17.4259 50.0117 17.8524 50.2719C18.3233 50.5597 18.462 51.051 18.8091 51.4031C19.1409 51.7402 19.3611 52.1993 19.581 52.6301C19.7018 52.866 19.8044 53.1674 19.7651 53.4155C19.715 53.7291 19.5813 54.1899 19.3597 54.2789C18.995 54.4258 19.0765 54.6836 18.9618 54.9053C18.8045 55.2081 18.5892 55.5027 18.1945 55.5677C17.964 55.6056 17.6894 55.7815 17.5203 55.7054C17.1088 55.5198 16.6837 55.2835 16.3795 54.9592C15.8053 54.3472 15.2919 53.674 14.8007 52.9919C14.6774 52.821 14.7342 52.5207 14.6978 52.1828C14.8615 52.3151 14.9266 52.3673 15.0646 52.4785C14.9931 51.9812 15.4278 51.8107 15.5733 51.5111Z" fill="black"/>
<path fill-rule="evenodd" clip-rule="evenodd" d="M10.4465 87.2692C10.1801 87.123 10.0518 87.0526 9.92738 86.9839C9.70823 87.7758 9.65389 87.8169 9.00644 87.5316C9.17733 87.9295 9.31426 88.2477 9.46334 88.5938C9.29424 88.6917 9.1212 88.7925 8.94638 88.8941C8.63034 88.5784 8.30966 88.2577 7.9593 87.907C7.74837 88.3821 8.32896 88.6016 8.27176 89.0603C7.75087 89.1329 7.44877 88.7786 7.14882 88.4526C6.98509 88.2745 6.89642 88.026 6.72768 87.8544C5.97548 87.0908 5.29979 86.2653 4.66986 85.4001C4.61337 85.3226 4.53508 85.2604 4.465 85.1931C4.08533 84.831 3.68742 84.481 3.65918 83.8907C4.03814 83.6587 4.23942 84.0162 4.49718 84.2375C4.75923 83.8039 4.1529 83.746 4.18007 83.4263C4.20331 83.0409 4.93656 83.5325 4.7503 82.9026H5.80602C6.10812 83.1153 6.4145 83.3259 6.71481 83.5443C7.01619 83.7635 7.21532 84.0784 7.58427 84.2568C7.94249 84.4306 8.17988 84.8403 8.4952 85.1181C8.70077 85.2993 8.83126 85.5485 9.15981 85.63C9.39756 85.6887 9.52447 86.0494 9.88556 86.0029C9.98602 85.9897 10.1673 86.1713 10.2184 86.3004C10.316 86.5463 10.346 86.8184 10.4465 87.2692Z" fill="black"/>
<path fill-rule="evenodd" clip-rule="evenodd" d="M3.7473 22.0594C4.08264 22.0815 4.31431 21.9082 4.62105 22.1295C4.46517 22.1831 4.3522 22.222 4.22886 22.2646C4.34398 22.6553 4.47197 23.0436 4.56599 23.4397C4.58995 23.5413 4.53668 23.7418 4.46625 23.7715C4.07513 23.9367 3.9568 24.3575 3.6522 24.588C3.51742 24.6903 3.31543 24.7235 3.13917 24.7436C3.05087 24.7532 2.94683 24.6199 2.85853 24.6292C2.75092 24.6406 2.65225 24.7346 2.53892 24.799C2.3716 24.2077 2.38018 24.1837 1.72129 23.9592C1.32696 23.8248 1.24509 23.4372 0.96552 23.1934C0.902956 23.3268 0.842537 23.4555 0.774967 23.5999C0.676652 23.4969 0.511126 23.4033 0.511483 23.3103C0.516488 22.1488 0.515416 22.1227 -0.0147699 21.4266C-0.313647 21.9518 0.259082 22.2557 0.290185 22.7694C0.148254 22.7472 -0.0637486 22.7637 -0.0884167 22.7033C-0.3376 22.0976 -0.717275 21.5256 -0.327948 20.7992C-0.20711 20.5736 -0.185302 20.4552 0.0860476 20.4506C0.253362 20.4481 0.433189 20.3498 0.58227 20.2554C0.968737 20.0112 1.3409 19.7452 1.75383 19.4639C1.84821 19.6047 1.93544 19.7352 1.91435 19.7034C2.24004 19.9304 2.57967 19.3191 2.63401 19.9565C2.64974 20.1374 3.05409 19.7059 3.05409 20.1796C3.05409 20.3626 3.3905 20.546 3.5596 20.7151C3.49919 20.8717 3.44198 21.0212 3.38443 21.1706C3.43233 21.2039 3.48024 21.2371 3.5285 21.2704C3.61323 21.1091 3.69796 20.9479 3.80486 20.7452C3.97896 21.0412 4.08014 21.2124 4.21277 21.4373C4.0687 21.6297 3.90818 21.8445 3.7473 22.0594Z" fill="black"/>
<path fill-rule="evenodd" clip-rule="evenodd" d="M-3.91226 49.2888C-3.66986 49.3599 -3.41675 49.4339 -3.10572 49.5251C-2.97379 49.2108 -2.93483 48.9091 -3.21297 48.6285C-2.87119 48.3178 -2.64381 48.7861 -2.30883 48.7354C-2.27772 48.5663 -2.24448 48.3882 -2.2123 48.2138C-1.94989 47.9327 -1.71322 48.4511 -1.39611 48.2066C-1.07185 47.9563 -0.989978 48.4965 -0.714338 48.5584C-0.559537 48.5931 -0.414746 48.7543 -0.304276 48.8902C0.0618138 49.3392 0.119015 49.9745 0.61202 50.3667C0.729998 50.4603 0.667077 50.7825 0.693532 51.0688C0.146901 50.8003 0.113653 51.6676 -0.412958 51.4621C-0.57491 51.7241 -0.421896 52.1993 -1.01429 52.2561C-1.07685 52.1496 -1.17481 51.9826 -1.31424 51.7445C-1.43293 51.9923 -1.49049 52.1124 -1.54948 52.2361C-1.88125 52.3147 -2.03319 52.0287 -2.14223 51.8468C-2.50439 51.2408 -2.97344 50.7771 -3.58013 50.4146C-3.95337 50.1915 -4.15822 49.8279 -3.91226 49.2888Z" fill="black"/>
</svg>
