<svg width="52" height="82" viewBox="0 0 52 82" fill="none" xmlns="http://www.w3.org/2000/svg">
<path fill-rule="evenodd" clip-rule="evenodd" d="M28.5052 62.7562C28.1911 62.8534 27.9331 62.9336 27.5994 63.0369C27.6807 62.8626 27.7343 62.7476 27.8021 62.6018C27.5799 62.2671 27.3286 61.9675 26.869 62.0339C26.8335 61.8983 26.8108 61.811 26.7788 61.6896H25.9792C25.8993 61.6097 25.8301 61.5718 25.812 61.5171C25.6896 61.148 25.6637 60.7093 25.4415 60.4197C25.1554 60.0474 25.2977 59.6821 25.2846 59.3215C25.2736 59.0287 25.3918 58.7288 25.4638 58.4349C25.7222 57.3843 26.1219 56.3852 26.6308 55.4351C26.9442 54.8509 27.2953 54.2819 27.68 53.7421C28.0559 53.2146 28.4963 52.733 28.9212 52.2152C28.8058 52.1413 28.6795 52.0554 28.5482 51.9777C27.2786 51.2267 26.1666 50.2812 25.1355 49.2327C24.6489 48.7379 24.6461 48.0739 24.5041 47.4627C24.447 47.2181 24.4949 46.9487 24.4949 46.6907C24.755 46.1945 25.2793 46.1526 25.7879 45.9503C25.9593 46.252 26.1354 46.5622 26.3341 46.9111C26.3689 46.8856 26.4292 46.8412 26.5375 46.7613C26.6039 46.8274 26.7206 46.8909 26.7533 46.9842C26.9556 47.5596 27.4255 47.8524 27.9249 48.1016C28.9411 48.6095 29.9664 49.0975 31.0575 49.6274C31.3127 49.3576 31.5679 48.9438 31.9384 48.7369C32.2799 48.5459 32.2976 47.9997 32.83 48.0522C32.754 47.9589 32.7012 47.8939 32.6224 47.7974C32.7856 47.6831 32.951 47.5674 33.1814 47.4063C33.2541 47.2458 33.3652 47.0013 33.4738 46.7617C33.6385 46.7521 33.7915 46.7432 34.0119 46.7305C33.9182 46.6098 33.8692 46.547 33.7933 46.449C34.2043 46.389 34.2316 45.9635 34.4903 45.7349C34.7636 45.4932 34.9571 45.1613 35.2162 44.8291C35.2737 44.8714 35.3337 44.9154 35.4479 44.9995C35.4983 44.8809 35.5455 44.7691 35.6048 44.6289C35.6747 44.6854 35.7393 44.7372 35.8558 44.8316C35.9825 44.1519 36.3679 43.6068 36.7775 43.1166C37.1995 42.6112 37.5789 42.0309 38.2696 41.6926C38.3562 41.764 38.4723 41.8594 38.6036 41.9673C38.3307 42.4916 38.0662 43.0112 37.5069 43.2848V44.0589C37.6393 44.0266 37.7738 44.0327 37.8018 43.9808C37.914 43.7718 37.9931 43.545 38.0375 43.4382C38.4975 43.0591 38.8733 42.7496 39.3475 42.3592C39.3745 42.7209 39.3915 42.9569 39.4086 43.1833C39.2641 43.2426 39.1541 43.2877 39.0384 43.3352C39.0682 43.3768 39.1055 43.457 39.1253 43.4527C39.3603 43.4044 39.5928 43.3434 39.8785 43.2728C39.9594 43.4154 40.0581 43.589 40.1575 43.7636C40.1042 43.8229 40.0407 43.8932 39.9722 43.9691C40.0127 44.2495 40.3498 44.4969 40.089 44.8181C40.013 44.7496 39.9456 44.6886 39.8767 44.6257C39.8448 44.6857 39.7827 44.7493 39.7955 44.7894C39.8309 44.9029 39.8973 45.0069 39.9719 45.1539C39.9186 45.6455 39.5257 45.972 39.1612 46.3038C38.8162 46.618 38.4368 46.8937 37.9931 47.2497C38.1756 47.3544 38.3342 47.446 38.5127 47.5489C38.4013 47.763 38.3339 47.8921 38.2629 48.0277C38.304 48.0735 38.3658 48.141 38.4616 48.2467C38.2512 48.2804 38.0737 48.3092 37.8192 48.3507C37.8884 48.5271 37.9477 48.6772 38.0162 48.8515H37.3717C37.252 49.0968 37.1477 49.3108 37.0483 49.5145C37.1406 49.6139 37.2052 49.6835 37.2982 49.7836C37.1005 49.8201 36.9234 49.8531 36.6657 49.9014C36.7282 50.0661 36.7853 50.2144 36.8524 50.3908C36.687 50.4153 36.5088 50.4416 36.2767 50.4757C36.3448 50.6595 36.4002 50.8086 36.4918 51.0556C36.2398 50.9577 36.0563 50.8863 35.8348 50.8004C35.7305 50.9992 35.624 51.2022 35.5203 51.3995C35.5573 51.4698 35.5718 51.5468 35.6155 51.5706C35.6925 51.6125 35.7965 51.6047 35.8728 51.6473C36.1692 51.8127 36.2384 52.196 36.5298 52.3603C36.8439 52.5378 36.9805 52.8423 37.1807 53.1135C37.361 53.3577 37.4948 53.5635 37.4746 53.8727C37.4675 53.9784 37.5619 54.0906 37.6205 54.223C37.5693 54.3099 37.4962 54.4338 37.3965 54.6035C37.1349 54.6336 36.9447 54.984 36.4673 54.799C35.6336 54.4757 34.7658 54.1861 33.8604 54.0771C33.81 54.0711 33.7684 53.9909 33.6861 53.9085C33.4213 54.207 33.1583 54.5034 32.8282 54.8757C32.824 54.9108 32.8062 55.0631 32.7867 55.2274C32.6014 55.2565 32.424 55.2846 32.1482 55.3279C32.3303 55.5834 32.4662 55.7744 32.6689 56.059C32.4399 55.992 32.2873 55.9476 32.0935 55.8908C32.0534 55.9384 31.9721 56.0345 31.8838 56.1389C31.9959 56.4487 31.9058 56.6383 31.5427 56.8445C31.4341 57.2349 31.3297 57.6101 31.2428 57.9231C31.0788 57.9834 30.9872 58.0172 30.869 58.0608L31.0809 58.2727C30.7916 58.4942 30.4598 58.6734 30.2355 58.9425C30.0328 59.1849 29.9483 59.5256 29.7908 59.8692C29.806 59.8926 29.8695 59.9877 29.9703 60.1386C29.757 60.3583 29.5476 60.5741 29.346 60.7813C29.4245 60.8793 29.4823 60.9514 29.5824 61.0763C29.4401 61.2388 29.3002 61.3986 29.1444 61.5764V62.1407C28.9159 62.3608 28.6841 62.584 28.5052 62.7562Z" fill="black"/>
<path fill-rule="evenodd" clip-rule="evenodd" d="M52.3092 66.6135C52.7564 67.1544 52.7567 67.1554 53.2994 66.8555C53.3147 67.0287 53.3093 67.1796 53.3466 67.3187C53.3732 67.4174 53.457 67.5008 53.5109 67.5846C53.4421 67.6538 53.3963 67.6992 53.3381 67.7574C53.4733 67.8206 53.6025 67.8813 53.814 67.9803C53.594 68.2937 53.3864 68.589 53.1791 68.8847C53.4463 69.3652 52.8809 69.4504 52.7997 69.7077C52.6744 70.1052 52.191 70.1908 52.1771 70.6156C52.1612 71.1111 51.6529 71.1722 51.4321 71.4607C51.2405 71.7117 50.8997 71.8756 50.8557 72.1958C50.932 72.3264 50.9924 72.4297 51.0914 72.5997C50.805 72.7615 50.5555 72.9031 50.3052 73.0448L49.7015 73.3301C49.518 73.5466 49.3345 73.7631 49.0893 74.052V74.2419C48.4713 74.6959 47.8942 75.1207 47.2241 75.6134C47.4158 75.711 47.5318 75.7702 47.7242 75.8686C47.458 76.2409 47.1886 76.6178 46.899 77.0228C47.6426 77.2762 48.3421 77.5151 49.0637 77.7614C48.9924 77.9048 48.932 78.0258 48.8504 78.1898C49.172 78.3044 49.4726 78.4116 49.8158 78.5341V78.955C50.0316 79.1534 50.2208 79.327 50.4167 79.5073C50.4288 79.7348 50.4398 79.952 50.4508 80.1596L50.8018 80.5103L49.9113 81.2514C49.7015 81.4849 49.4829 81.4416 49.2479 81.2858C49.1766 81.2386 49.0765 81.2116 48.9899 81.2134C47.9904 81.2354 47.0871 80.8549 46.1778 80.5224C45.507 80.2775 44.8614 79.9641 44.1657 79.6645C43.9758 79.8537 43.6802 79.9971 43.6422 80.3875C43.2404 80.4826 42.8283 80.5806 42.4429 80.6718C42.2441 80.4706 42.0855 80.3101 41.9265 80.149C41.9868 80.0823 42.0493 80.0134 42.1415 79.9115C42.0457 79.7121 41.9424 79.4973 41.8807 79.3696C41.5815 79.4157 41.3167 79.4569 41.0583 79.4966C40.9153 79.2141 40.7868 78.9589 40.6551 78.698C40.5909 78.7623 40.5454 78.8077 40.5288 78.8244C40.3147 78.6068 40.0989 78.3878 39.8008 78.0854C39.8934 77.4139 39.4636 76.6427 39.579 75.8089C39.6035 75.6343 39.4697 75.3816 39.3287 75.2496C38.7577 74.7136 38.7332 73.9392 38.4649 73.2801C38.3623 73.0284 38.253 72.709 38.2441 72.4048C38.2292 71.9218 38.1727 71.4256 38.2554 70.9564C38.3861 70.2142 38.5266 69.4227 39.3909 69.1306C39.6766 69.0341 39.991 69.0234 40.3676 68.961V70.4705C40.6952 70.2596 40.9146 70.1184 41.2418 69.9076C41.2872 70.041 41.3419 70.2 41.3958 70.359C41.4445 70.3221 41.4931 70.2852 41.5417 70.2483V71.1388C41.7082 71.0543 41.8285 70.9933 41.9421 70.9354C42.3527 71.2946 42.3421 71.7546 42.2853 72.2277C42.4226 72.2763 42.5345 72.3157 42.7137 72.3793C42.6374 72.5865 42.5611 72.7924 42.4688 73.0412C42.5806 73.021 42.6367 73.027 42.6679 73.0018C42.7431 72.9422 42.795 72.8357 42.8773 72.8045C43.7039 72.4904 44.1199 71.6116 44.9497 71.306C45.1165 70.7051 45.7501 70.5769 46.1203 70.172C46.5054 69.751 47.0488 69.477 47.5134 69.126C47.9631 68.786 48.2165 68.2131 48.8032 68.0332C49.1886 67.3315 49.7434 66.7998 50.4337 66.403C50.4096 65.9278 51.0634 65.8688 51.0481 65.3677H51.9209C51.9833 65.4298 52.0746 65.521 52.1658 65.6122C51.748 65.8202 51.5954 66.2238 51.3281 66.6504C51.9063 66.77 52.2392 66.0662 52.7841 66.3909C52.6265 66.4648 52.4976 66.5251 52.3092 66.6135Z" fill="black"/>
<path fill-rule="evenodd" clip-rule="evenodd" d="M50.0646 56.3824C50.0195 55.9298 50.6563 55.8801 50.3546 55.4585C50.2776 55.5273 50.2091 55.588 50.1405 55.6487C50.1178 55.6257 50.0784 55.6054 50.0745 55.5799C50.0028 55.1057 50.0316 54.656 50.3681 54.2695C50.7382 53.845 51.1052 53.4169 51.4602 52.9797C51.5723 52.8416 51.6415 52.6687 51.7519 52.4742C51.5766 52.0175 51.3363 51.544 51.1276 51.0734C50.9036 50.5679 50.9086 50.0199 50.6651 49.5198C50.5356 49.2543 50.8735 48.7883 50.7943 48.4632C50.7052 48.0994 50.4905 47.7899 50.8043 47.4471C50.8107 46.488 51.4627 45.8903 52.033 45.2245H53.6455C53.7399 45.3139 53.8332 45.4027 53.9844 45.5457C53.7392 45.8584 53.4936 46.1711 53.222 46.5171C53.2522 46.5817 53.325 46.7361 53.4222 46.9431C53.5131 46.9431 53.687 46.9952 53.7491 46.9338C54.0185 46.6694 54.3298 46.7762 54.6133 46.745C54.7181 46.9718 54.8054 47.1613 54.9026 47.3718C54.7571 47.5535 54.607 47.7413 54.3791 48.0256C54.7237 48.0696 54.9548 48.0991 55.2586 48.1377V49.0655C55.9124 49.0868 55.9841 48.295 56.5346 48.2982C56.7844 47.9177 57.1489 47.6529 57.4773 47.3495C57.856 46.9998 58.2162 46.6293 58.5733 46.257C58.9019 45.9138 59.2356 45.572 59.5309 45.2014C59.8347 44.8195 60.0959 44.4036 60.2716 44.1516C60.6716 44.0082 60.897 43.9272 61.1767 43.8271C61.2682 43.9574 61.4184 44.0898 61.4567 44.2492C61.4862 44.3716 61.3886 44.5345 61.3229 44.6669C61.248 44.8174 61.1454 44.9537 61.1465 45.2185C61.4287 45.0996 61.7108 44.9803 62.0214 44.8493C62.1871 45.1723 62.3646 45.518 62.6336 46.0423C62.6336 46.0312 62.618 46.2218 62.639 46.4082C62.6553 46.553 62.7167 46.6928 62.771 46.8785C62.7327 46.9452 62.6624 47.0687 62.5974 47.183C62.695 47.2884 62.76 47.3583 62.8179 47.4204C62.2571 48.3184 61.7524 49.248 61.1373 50.1172C60.6209 50.8469 60.6933 50.898 60.3149 51.1046C60.3752 51.1717 60.4363 51.2391 60.4853 51.2934C59.7193 52.1516 58.9598 53.0031 58.1889 53.8673V54.1885C58.7944 54.5744 59.3804 54.9474 59.993 55.3375C59.9043 55.5114 59.8499 55.6178 59.7662 55.7829C59.998 55.982 60.1538 56.365 60.6024 56.2237C60.7007 56.4189 60.7809 56.5783 60.8597 56.7352C60.8033 56.8139 60.733 56.9116 60.6368 57.0454C60.8796 57.2885 61.0975 57.5068 61.3332 57.7428C61.2434 57.9739 61.1671 58.1708 61.0823 58.3891C61.1444 58.4956 61.2189 58.6241 61.2878 58.7423C61.2537 58.8157 61.243 58.8917 61.2008 58.9197C61.1057 58.9818 60.9658 58.9939 60.8963 59.0727C60.4799 59.5426 60.4054 59.5689 59.8819 59.39C59.204 59.1582 58.475 59.022 57.8556 58.6837C57.0258 58.2308 56.2801 57.6239 55.4229 57.0308C55.063 57.297 54.6591 57.6622 54.2701 58.0778C53.8939 58.48 53.3981 58.7987 52.7088 59.0039C52.8302 58.8033 52.8799 58.7213 52.9874 58.5424C52.5555 58.623 52.1931 58.6905 51.8311 58.7579L51.769 58.6333C51.9869 58.4633 52.2045 58.2936 52.4224 58.124L52.0856 57.7872H51.4247C51.3367 57.566 51.2387 57.3183 51.123 57.0273H50.3209C50.2105 56.7494 50.1114 56.5002 50.0646 56.3824Z" fill="black"/>
<path fill-rule="evenodd" clip-rule="evenodd" d="M54.2627 37.3893C53.9305 37.4688 53.6377 37.5391 53.2245 37.6381C52.8004 37.3247 52.2932 36.9343 51.7697 36.568C51.1454 36.1311 50.6031 35.5746 49.8904 35.2669C49.7253 35.1955 49.5521 35.1441 49.3228 35.0617C49.0449 34.6454 49.0126 33.8724 48.1974 33.9575C47.8286 33.6204 47.7835 33.0347 47.2444 32.9779C47.068 32.6773 46.9565 32.3334 46.7248 32.1187C45.6667 31.1373 44.9011 29.9586 44.2427 28.5364C44.1856 28.0973 44.1853 27.5121 44.0905 26.925C43.9414 26.0004 44.4341 25.2064 45.2348 24.6939C45.4559 24.5527 45.5698 24.2421 45.9372 24.2751C46.1927 24.2982 46.4625 24.1622 46.8018 24.0788C46.9022 24.1683 47.0353 24.2865 47.2032 24.4355C46.9303 24.8938 46.4142 25.183 46.3752 25.7985C46.9824 26.0011 47.2547 25.3264 47.8658 25.2487C47.9404 25.3154 48.0728 25.4332 48.197 25.5447C47.9805 25.8695 47.8346 26.0881 47.5659 26.4909C47.9837 26.3589 48.2808 26.3568 48.3904 26.2123C48.6676 25.8467 49.1159 25.7001 49.3761 25.2934C49.6185 24.9147 50.016 24.6325 50.4224 24.3685C50.997 23.9954 51.4627 23.4591 52.0015 23.0254C52.7933 22.388 53.5355 21.6895 54.4175 21.1596C54.7664 20.9505 55.0244 20.5864 55.314 20.2829C55.5774 20.0068 55.9958 19.8861 56.0785 19.4744H57.3804V20.3141C57.3442 20.3503 57.2193 20.4753 57.0688 20.6261C57.2413 20.5952 57.4134 20.5707 57.5823 20.5324C57.7541 20.4934 57.9231 20.4408 58.1836 20.3695C58.1438 20.9945 58.174 21.5479 58.6255 21.951C58.5304 22.0792 58.4761 22.1523 58.3667 22.3003C58.5044 22.3763 58.6642 22.4636 58.9612 22.6265C58.6553 22.7102 58.5513 22.7386 58.4093 22.7777C58.4633 22.9012 58.5357 23.0165 58.5619 23.1418C58.5886 23.2653 58.568 23.3984 58.568 23.5252C58.2091 24.0178 57.85 24.5104 57.4556 25.0513C57.3832 25.0595 57.2306 25.0762 57.0063 25.1007C57.0744 25.1944 57.1163 25.2529 57.1713 25.3289C57.1135 25.4673 57.0492 25.621 56.9772 25.7921C56.1254 25.7509 56.1193 26.6286 55.5926 26.9704C55.7041 27.117 55.7594 27.1898 55.7846 27.2231C55.4343 27.5738 55.0808 27.9273 54.7238 28.284C54.7525 28.3103 54.7067 28.2688 54.7266 28.2865C54.5676 28.4452 54.4036 28.6091 54.2396 28.7735C54.1864 28.7319 54.1335 28.6908 54.0803 28.6492V29.1589C53.9678 29.0663 53.9025 29.0123 53.7559 28.892C53.7882 29.1092 53.8098 29.2537 53.84 29.4567C53.5983 29.7697 53.3076 30.1463 52.9928 30.5545C52.8512 30.4509 52.7546 30.3795 52.6687 30.3163C52.3202 30.7238 51.9628 31.1415 51.6022 31.5632C51.7409 31.6324 51.8691 31.6959 52.0558 31.7886C51.8819 32.009 51.7324 32.1985 51.5922 32.3763C51.6149 32.4548 51.6149 32.5272 51.6508 32.5676C52.2403 33.2285 52.9395 33.8195 53.3992 34.5599C53.917 35.3936 54.564 36.2543 54.2627 37.3893Z" fill="black"/>
<path fill-rule="evenodd" clip-rule="evenodd" d="M11.0858 12.4591C10.8448 12.489 10.6996 12.5071 10.5165 12.5298C10.6279 12.6533 10.6914 12.7232 10.793 12.8357C10.5527 13.2826 10.0973 13.5505 9.78851 13.9413L9.9397 14.0925C9.69374 14.2856 9.44742 14.4787 9.23801 14.643C9.12231 14.9479 9.36934 15.2918 8.96223 15.4806C9.32284 15.7223 9.65257 15.9381 9.97662 16.1617C10.9928 16.8638 12.0796 17.4661 12.9172 18.4116C13.3971 18.9529 13.8489 19.4761 13.8574 20.2534C13.8588 20.3843 13.9919 20.5135 14.098 20.7055C13.8059 20.8904 13.5323 21.0633 13.1894 21.2802C11.2576 20.1483 9.26037 19.1396 7.42859 17.6613C7.29727 17.7362 7.01049 17.7994 6.9576 17.9467C6.74784 18.5302 6.33683 18.9398 5.91837 19.3575C5.86726 19.4086 5.88643 19.5297 5.87259 19.6191C5.69335 19.639 5.54109 19.6553 5.30861 19.6809C5.35333 19.8338 5.39131 19.9637 5.45768 20.1912C5.085 20.5032 4.80674 20.9675 4.66016 21.5439C4.57497 21.8786 4.25412 22.1529 3.96663 22.5572V24.6605C3.78348 24.6722 3.63087 24.6818 3.45802 24.6928C3.42075 24.7975 3.381 24.9096 3.33344 25.0442H2.66617C2.56182 24.7418 2.45499 24.4316 2.33148 24.0741C2.14585 24.1558 1.96058 24.2371 1.73981 24.334C1.69438 24.1934 1.65853 24.0834 1.62269 23.9733C1.56803 23.9506 1.50769 23.9002 1.45835 23.9095C1.04877 23.9872 0.768375 23.6408 0.717975 23.4204C0.512472 22.5231 -0.0681893 21.6358 0.489402 20.6725C0.499695 19.7185 1.09207 18.9905 1.42783 18.1607C1.5375 17.8899 2.00885 17.9374 1.88107 17.4697C1.82854 17.2773 2.17779 16.9724 2.34958 16.7222C2.50539 16.4954 2.65198 16.2601 2.83121 16.0531C3.04169 15.81 3.29794 15.6063 3.50664 15.3621C3.6802 15.1584 3.81401 14.9209 3.98402 14.6711C2.80779 13.7876 2.08835 12.5326 1.26385 11.3624C0.999433 10.2302 0.542641 9.13063 0.720815 7.80498C0.993044 7.49229 1.34123 7.09193 1.71568 6.66211C2.13023 6.74729 2.59625 6.49032 2.97496 6.92227C2.72687 7.25661 2.48055 7.58847 2.23174 7.92388C2.30024 7.99628 2.36377 8.06443 2.4266 8.13115C2.95189 8.23976 3.14426 7.47525 3.69298 7.65236C3.77461 7.81065 3.85589 7.96931 3.94107 8.13399C3.77213 8.24225 3.57869 8.36647 3.37567 8.49637C3.49954 8.6206 3.59076 8.71182 3.68198 8.80303C3.95598 8.51945 4.22218 8.5159 4.54409 8.90383C4.51499 9.11998 4.68252 9.43232 4.35918 9.68396C4.49334 9.74856 4.62466 9.81174 4.81242 9.90153C4.65803 10.1092 4.52102 10.293 4.38083 10.4815C4.51144 10.528 4.6236 10.5674 4.85821 10.6508C4.64241 10.709 4.54019 10.7363 4.36131 10.7846C4.38012 10.9418 4.3425 11.1569 4.43194 11.2772C4.80248 11.7756 5.21136 12.2451 5.64969 12.7779C5.89105 12.5614 6.07632 12.4002 6.25556 12.2331C7.31466 11.2456 8.20091 10.0616 9.5145 9.3624C9.5074 8.9986 9.88824 9.02415 10.0522 8.8293C10.2378 8.60889 10.4441 8.40587 10.5772 8.26354H11.2277C10.9328 8.69762 10.4302 8.94287 10.5942 9.56826C11.0144 9.31768 11.4258 9.07242 11.9269 8.77393C11.8822 9.06035 11.8474 9.28112 11.8084 9.53205C11.9837 9.62043 12.2442 9.75282 12.5239 9.89408C12.4519 10.0435 12.3915 10.1681 12.3213 10.314C12.4224 10.3353 12.5104 10.3534 12.6024 10.3725C12.612 10.4101 12.6489 10.4744 12.6311 10.4982C12.3954 10.8162 12.0799 11.0973 11.9298 11.4497C11.7417 11.892 11.3268 12.0911 11.0858 12.4591Z" fill="black"/>
<path fill-rule="evenodd" clip-rule="evenodd" d="M28.7547 22.3392C29.526 21.393 30.1773 20.6065 30.8151 19.8089C31.4192 19.0537 31.9356 18.238 32.4051 17.4022C32.3452 17.328 32.287 17.2563 32.1872 17.1335C32.3512 16.9475 32.5134 16.7629 32.6855 16.5674H33.3233C33.5619 16.8059 33.7539 17.1463 34.0268 17.2332C34.3601 17.339 34.4073 17.6055 34.5418 17.8047C35.0082 18.4943 35.3326 19.1942 34.9741 20.0929C34.7537 20.6455 34.5305 21.1985 34.3012 21.7486C34.2323 21.9144 34.1819 22.0879 34.0942 22.3403L33.6055 22.8294V23.4384C33.2229 24.1316 32.9045 24.7094 32.556 25.3412C33.0376 25.6684 33.4813 25.984 33.9384 26.2786C34.8442 26.8624 35.5935 27.5875 36.041 28.5838C36.1372 28.7982 36.1812 29.0363 36.2813 29.371C36.2469 29.4473 36.1628 29.6351 36.0698 29.841C35.8703 29.934 35.6549 30.0344 35.4866 30.1125C35.0316 29.9552 34.6291 29.8378 34.2444 29.6777C33.8593 29.518 33.4919 29.3157 33.1168 29.1322C33.0529 28.5717 32.414 28.7982 32.151 28.417C31.9352 28.1039 31.4554 27.9737 31.0344 27.7284C29.773 29.0154 28.6621 30.4213 27.6427 31.902C27.5643 32.0156 27.5895 32.2005 27.5668 32.3521C27.1224 32.6942 26.683 32.6421 26.2422 32.3311V32.0234C25.6693 31.6802 25.1323 31.3586 24.5449 31.0065C24.2638 30.6772 24.4069 30.1597 24.2237 29.7593C24.0196 29.3135 24.1921 28.8819 24.1147 28.554C24.755 27.1268 25.5128 25.8768 26.5978 24.7982V24.1394C25.9707 23.7025 25.581 23.0214 25.1863 22.3534C25.0539 22.1295 25.0333 21.837 24.9726 21.5736C24.8494 21.0377 24.6652 20.5191 24.6816 19.9498C24.7132 18.8609 25.3314 18.084 26.371 17.6932C27.0266 17.4469 27.6633 17.5708 28.3682 17.5016C27.9888 18.287 27.0798 18.2199 26.5485 18.8783C27.4649 18.8379 28.0232 17.9747 28.9577 18.1394C28.9215 18.3594 28.8853 18.5798 28.847 18.8119C29.0184 18.8723 29.2701 18.9614 29.5121 19.0473V20.2764C29.263 20.7112 28.9893 21.1449 28.7661 21.6034C28.694 21.7507 28.7547 21.963 28.7547 22.3392Z" fill="black"/>
<path fill-rule="evenodd" clip-rule="evenodd" d="M45.1118 10.2901C44.7494 10.7444 44.4186 11.1596 44.0527 11.6182V12.8601C43.7123 12.9967 43.3812 13.1302 43.0071 13.2803C42.5648 12.8509 42.3856 12.2812 42.244 11.7428C42.0545 11.8134 41.8869 11.8755 41.6381 11.9678C41.4429 11.6871 41.2055 11.439 41.0773 11.1437C40.694 10.2588 40.7245 9.31401 40.7664 8.42492C40.9272 8.05863 41.0706 7.73139 41.2495 7.32287C40.9819 7.28276 40.7448 7.32003 40.6465 7.22065C40.0211 6.58852 39.4039 5.94539 38.8306 5.26642C38.5219 4.90013 38.196 4.48593 38.0729 4.03979C37.8933 3.38672 37.889 2.68538 37.8042 1.95601C38.0988 1.54181 38.3384 1.05662 38.7125 0.722278C39.0564 0.41491 39.5455 0.2701 40.0757 0C40.1993 0.133808 40.3196 0.263356 40.4413 0.395034C40.3703 0.46318 39.4252 1.37357 39.4252 1.37357C39.4933 1.44207 39.5618 1.51057 39.6626 1.61102C40.0953 1.29549 40.5261 0.882705 41.2296 1.15493C41.055 1.39416 40.919 1.58014 40.6802 1.90703C41.0032 1.78103 41.1835 1.71111 41.4333 1.61386C41.5512 1.79132 41.6775 1.98192 41.8309 2.21333C41.5639 2.48059 41.3542 2.69035 41.1011 2.94377C41.2644 2.97713 41.3524 2.99559 41.4986 3.02576C41.2793 3.39559 41.4032 3.90704 40.8378 4.09586C41.3989 4.7862 42.0236 5.16668 42.6575 5.58762C44.7913 3.81831 46.8786 2.08733 48.994 0.333277H49.9278C49.7642 0.66123 49.6343 0.922812 49.5026 1.18759C49.783 1.40161 50.0048 1.16132 50.2533 1.05343C50.9709 1.72317 51.1399 2.55938 50.9922 3.49213C50.6941 3.87474 50.3878 4.26765 50.0751 4.66872C50.0953 4.68717 50.1418 4.73047 50.2696 4.84867C50.0975 4.87067 49.9317 4.89197 49.7656 4.91326C49.8306 4.98283 49.8955 5.05275 49.9605 5.12267H49.6002C48.9369 6.37095 47.8156 7.22029 46.9947 8.35748C48.1198 8.98428 49.3787 9.45066 50.5692 10.1602C50.6054 10.339 50.6462 10.5421 50.6941 10.782C50.8403 10.6272 50.95 10.5112 51.0558 10.3994C51.5349 10.464 51.525 11.0148 51.9271 11.2164C52.2792 11.3932 52.4847 11.8624 52.7587 12.2067V13.3559C52.6657 13.4489 52.5745 13.5401 52.4467 13.6679C51.4501 13.5614 50.626 12.9935 49.7184 12.5343C49.7 12.5509 49.6325 12.612 49.6031 12.6386C48.9681 12.4817 48.5894 11.8003 47.8568 11.9021C47.5154 11.4631 46.9539 11.429 46.5159 11.1703C46.0733 10.9091 45.6446 10.6255 45.1118 10.2901Z" fill="black"/>
<path fill-rule="evenodd" clip-rule="evenodd" d="M15.0867 35.6962C15.196 35.8056 15.2872 35.8968 15.4164 36.026C14.8233 36.5332 14.2334 37.0372 13.6439 37.5415C13.657 37.5756 13.6705 37.6096 13.684 37.6434C13.8093 37.6068 13.9623 37.6036 14.0535 37.527C14.2239 37.3843 14.358 37.1994 14.5919 37.1532C15.0054 36.92 15.4189 36.6865 15.821 36.4593C16.1717 36.7429 15.9158 36.9669 15.7649 37.3108C15.9946 37.2238 16.1433 37.1674 16.3034 37.1064C16.3733 37.1763 16.4645 37.2675 16.5561 37.3591C16.5564 37.7456 16.5564 38.1325 16.5564 38.5239C16.4436 38.634 16.3286 38.7468 16.2068 38.8654C16.2246 38.9101 16.2292 38.9719 16.2622 38.996C16.4823 39.161 16.702 39.3282 16.9341 39.4751C17.1836 39.6327 17.5328 39.6782 17.5424 40.0817C17.5435 40.1282 17.6223 40.1807 17.6741 40.2173C17.8732 40.3575 18.1064 40.4636 18.2686 40.6372C18.4305 40.81 18.5224 41.0482 18.686 41.3279C18.686 41.4915 18.686 41.7495 18.6856 42.0072C18.5256 42.1669 18.3662 42.3266 18.2328 42.4601C17.0122 42.0239 15.8058 41.593 14.5997 41.1621C14.3318 41.3052 14.0432 41.4588 13.7543 41.6125C13.7422 41.593 13.7301 41.5735 13.7181 41.554C13.4671 41.8045 13.2162 42.0555 12.8957 42.376C12.8911 42.4523 12.8819 42.6021 12.8702 42.793C12.3619 43.2817 11.8299 43.7939 11.4008 44.207C11.1853 44.8754 11.2946 45.5618 10.4041 45.7027C10.2199 45.4081 9.55833 45.3609 9.70917 44.6741C9.52603 44.6212 9.30101 44.5556 9.05575 44.4846C9.00038 44.5219 8.90065 44.5886 8.82292 44.6404C8.57376 44.3771 8.35619 44.1463 8.03995 43.8117C7.96932 43.2079 7.87881 42.4352 7.78369 41.6221C8.5876 40.7529 9.3798 39.8964 10.2203 38.9875C9.89161 38.7816 9.55265 38.6095 9.26232 38.377C8.96205 38.1364 8.70899 37.8368 8.42753 37.5553C8.50526 37.3044 8.58441 37.0485 8.66959 36.772C8.512 36.7181 8.39949 36.6794 8.25965 36.6311V35.9773C8.3136 35.923 8.3821 35.8549 8.46125 35.7754C8.73809 35.7204 9.02878 35.6625 9.38796 35.5908C10.3441 36.1275 11.3898 36.7142 12.407 37.2845C13.427 36.8966 14.0883 36.0018 15.0867 35.6962Z" fill="black"/>
</svg>
