<svg width="245" height="428" viewBox="0 0 245 428" fill="none" xmlns="http://www.w3.org/2000/svg">
<path fill-rule="evenodd" clip-rule="evenodd" d="M102.438 105.008C102.378 105.166 102.319 105.324 102.259 105.482C102.939 105.764 103.619 106.045 104.3 106.327C104.371 106.14 104.441 105.952 104.513 105.766C103.821 105.513 103.13 105.261 102.438 105.008ZM241.13 196.978C241.249 196.841 241.369 196.704 241.489 196.567C240.893 195.972 240.303 195.369 239.69 194.791C239.639 194.743 239.381 194.823 239.308 194.914C239.215 195.029 239.13 195.312 239.185 195.36C239.818 195.917 240.477 196.443 241.13 196.978ZM249.315 174.824C249.226 174.927 249.139 175.031 249.05 175.133C249.944 175.898 250.838 176.662 251.731 177.426C251.84 177.299 251.947 177.171 252.055 177.044L249.315 174.824ZM234.687 330.717L234.749 330.627C233.997 329.714 233.248 328.799 232.493 327.889C232.373 327.745 232.238 327.601 232.083 327.501C232.033 327.468 231.893 327.574 231.795 327.617C231.897 327.788 231.971 327.988 232.107 328.127C232.958 328.998 233.825 329.855 234.687 330.717ZM196.845 185.349C196.77 185.442 196.695 185.537 196.62 185.63C197.723 186.523 198.826 187.416 199.929 188.308C200.007 188.211 200.086 188.113 200.164 188.016C199.058 187.127 197.951 186.238 196.845 185.349ZM147.691 81.5831C147.757 81.4105 147.822 81.2384 147.887 81.0654C146.708 80.7088 145.53 80.3514 144.351 79.9944C144.292 80.1946 144.234 80.3948 144.176 80.5951C145.348 80.9249 146.52 81.2542 147.691 81.5831ZM269.63 137.151C269.555 137.337 269.48 137.524 269.405 137.711C270.122 138.18 270.825 138.674 271.569 139.096C271.722 139.183 272.057 139.042 272.25 138.916C272.312 138.876 272.247 138.427 272.133 138.367C271.315 137.932 270.468 137.549 269.63 137.151ZM212.817 273.407C212.918 273.274 213.02 273.141 213.121 273.008C211.524 271.712 209.927 270.416 208.33 269.12C208.239 269.23 208.147 269.34 208.056 269.45C209.643 270.769 211.23 272.087 212.817 273.407ZM243.235 293.231C243.103 293.36 242.971 293.488 242.839 293.617L246.031 297.206C246.176 297.069 246.32 296.931 246.464 296.795C245.388 295.607 244.311 294.418 243.235 293.231ZM252.255 246.53C252.346 246.394 252.438 246.258 252.529 246.122C251.2 245.031 249.872 243.939 248.542 242.849C248.416 243.017 248.289 243.185 248.162 243.352C249.526 244.411 250.891 245.471 252.255 246.53ZM282.615 148.124L282.925 147.824C281.948 146.995 280.987 146.145 279.976 145.359C279.829 145.245 279.447 145.434 279.173 145.483C279.279 145.696 279.329 145.989 279.499 146.106C280.523 146.8 281.574 147.455 282.615 148.124ZM242.978 160.346C243.036 160.254 243.093 160.162 243.15 160.072C241.351 158.88 239.551 157.689 237.75 156.497C237.651 156.654 237.553 156.809 237.455 156.966C239.296 158.092 241.136 159.219 242.978 160.346ZM160.889 95.5228C160.927 95.37 160.964 95.2172 161.002 95.0648L152.765 91.204C152.695 91.3525 152.627 91.5 152.558 91.6471C155.335 92.9386 158.112 94.2305 160.889 95.5228ZM123.732 204.754C124.195 203.668 123.66 202.082 122.854 201.784C122.611 201.694 122.441 201.421 122.222 201.25C121.931 201.021 121.625 200.808 121.324 200.589C121.321 200.972 121.163 201.463 121.342 201.719C122.053 202.734 122.87 203.677 123.732 204.754ZM228.65 219.015C228.554 219.095 228.46 219.175 228.365 219.256L233.986 224.877C234.07 224.786 234.154 224.694 234.238 224.602L228.65 219.015ZM213.675 286.231C213.632 286.273 213.589 286.314 213.546 286.355L224.428 297.237C224.471 297.196 224.513 297.154 224.556 297.112L213.675 286.231ZM284.86 149.329L284.362 149.858C285.703 151.385 287.031 152.925 288.405 154.424C288.554 154.585 288.969 154.504 289.26 154.535C289.281 154.248 289.434 153.83 289.301 153.693C287.846 152.213 286.347 150.778 284.86 149.329ZM213.789 363.27C213.728 363.318 213.668 363.368 213.608 363.417C217.486 366.375 221.355 369.346 225.257 372.273C225.678 372.589 226.297 372.641 226.824 372.816C226.431 372.589 226.036 372.364 225.643 372.137C225.596 372.108 225.56 372.061 225.515 372.027C221.606 369.107 217.698 366.188 213.789 363.27ZM126.798 100.191C125.388 98.3932 119.223 95.9873 117.984 96.6605C120.877 97.8193 123.639 98.9263 126.798 100.191ZM126.449 93.1207C125.402 92.455 123.822 94.3753 123.298 92.1841C123.095 92.2618 122.895 92.3435 122.69 92.4142C122.589 92.4489 122.473 92.4954 122.375 92.4774C122.177 92.4405 121.843 92.2767 121.819 92.3154C121.69 92.5341 121.495 92.8867 121.584 93.0294C121.897 93.5291 122.227 94.1303 122.713 94.3889C124.409 95.2909 124.963 95.0573 126.449 93.1207ZM285.826 304.818C285.994 304.598 286.163 304.376 286.331 304.156C283.121 301.562 279.91 298.969 276.7 296.376C276.62 296.47 276.54 296.564 276.46 296.657C279.582 299.378 282.704 302.098 285.826 304.818ZM236.203 218.103C236.352 217.964 236.501 217.826 236.649 217.687C232.413 213.164 228.176 208.642 223.94 204.12C228.062 208.75 231.662 213.864 236.203 218.103ZM238.999 185.014C238.888 185.12 238.778 185.225 238.667 185.33C238.951 185.666 239.225 186.011 239.52 186.336C241.561 188.573 243.583 190.826 245.666 193.022C246.041 193.416 246.95 193.917 247.137 193.769C247.916 193.151 247.668 192.428 246.942 191.811C244.286 189.555 241.646 187.281 238.999 185.014ZM116.793 63.9043C116.838 64.1208 116.883 64.3364 116.929 64.5529L135.891 60.1217C134.357 60.1011 132.823 60.2815 131.285 60.4133C130.864 60.4497 129.931 61.0592 130.364 59.7823C130.185 59.7392 129.986 59.6264 129.831 59.6703C129.627 59.7282 129.29 60.0124 129.296 60.0216C129.938 61.054 128.967 60.8199 128.558 60.9249C124.639 61.9309 120.715 62.9145 116.793 63.9043ZM253.754 312.133C253.844 312.041 253.933 311.951 254.022 311.859L234.819 293.721C234.636 293.922 234.452 294.122 234.268 294.322C240.763 300.258 247.259 306.196 253.754 312.133ZM325.415 241.214C325.519 241.144 325.623 241.073 325.727 241.003C325.622 239.383 325.153 237.682 325.494 236.162C326.051 233.68 325.781 231.288 325.539 228.855C325.52 228.68 325.298 228.526 325.17 228.362C325.006 228.539 324.724 228.7 324.696 228.898C324.157 232.665 323.023 236.447 324.826 240.186C324.997 240.541 325.217 240.871 325.415 241.214ZM286.684 314.482C279.479 308.815 272.684 303.47 265.89 298.125C272.024 304.333 278.546 310.044 286.684 314.482ZM247.395 270.244C247.703 270.454 247.914 270.64 248.159 270.756C248.544 270.936 248.95 271.07 249.348 271.222C249.234 270.775 249.255 270.212 248.986 269.897C245.677 266.018 242.331 262.171 238.969 258.339C238.795 258.141 238.304 257.996 238.112 258.103C237.91 258.215 237.713 258.782 237.82 258.934C238.531 259.934 239.279 260.917 240.102 261.827C241.013 262.836 242.086 263.703 242.965 264.737C244.512 266.557 245.966 268.457 247.395 270.244ZM273.002 295.025C272.69 294.576 272.439 294.065 272.056 293.687C267.483 289.171 262.899 284.667 258.285 280.193C257.971 279.887 257.401 279.843 256.95 279.677C257.116 280.107 257.178 280.626 257.463 280.951C262.079 286.22 267.309 290.827 273.002 295.025ZM217.41 173.301C217.219 173.533 217.029 173.765 216.838 173.997C218.801 175.675 220.774 177.343 222.723 179.037C223.609 179.807 224.491 180.589 225.296 181.441C226.377 182.583 227.288 183.9 228.44 184.961C230.458 186.822 232.657 188.486 234.672 190.351C235.643 191.248 236.333 192.442 237.221 193.439C237.433 193.677 237.927 193.666 238.291 193.769C238.317 193.529 238.455 193.214 238.352 193.064C237.74 192.174 237.148 191.25 236.406 190.475C235.205 189.224 233.875 188.098 232.633 186.883C231.129 185.413 229.696 183.87 228.17 182.425C226.539 180.881 224.87 179.373 223.155 177.925C221.277 176.339 219.328 174.838 217.41 173.301ZM224.944 159.933C225.383 160.521 225.712 161.293 226.296 161.691C231.847 165.48 237.471 169.16 243.01 172.966C245.603 174.748 248.05 176.742 250.582 178.613C250.785 178.763 251.138 178.709 251.422 178.75C251.382 178.486 251.42 178.169 251.286 177.968C251.071 177.647 250.768 177.367 250.455 177.133C246.813 174.4 243.177 171.657 239.506 168.963C237.487 167.482 235.466 165.988 233.336 164.68C230.634 163.023 227.821 161.549 224.944 159.933ZM175.131 79.4216C183.277 85.3783 191.425 91.3351 199.571 97.2922C192.821 89.4073 184.307 83.9573 175.131 79.4216ZM224.287 168.023L223.927 168.513C224.267 168.823 224.572 169.188 224.954 169.433C226.699 170.56 228.541 171.551 230.213 172.775C236.522 177.392 242.775 182.085 249.063 186.729C249.269 186.881 249.633 186.821 249.923 186.861C249.863 186.564 249.909 186.15 249.728 185.988C247.731 184.201 245.824 182.278 243.65 180.732C238.953 177.389 234.13 174.222 229.324 171.032C227.696 169.952 225.97 169.022 224.287 168.023ZM288.116 324.043C276.237 316.265 265.509 307.023 254.794 297.767C264.755 307.982 275.419 317.302 288.116 324.043ZM225.306 172.301C225.835 172.977 226.002 173.364 226.296 173.538C228.995 175.135 230.503 178.084 233.662 179.344C236.024 180.286 237.891 182.501 239.92 184.218C240.349 184.581 240.522 185.244 240.814 185.768C242.753 184.562 242.165 188.061 244.008 187.506C244.39 187.391 245.198 189.035 245.96 189.696C246.387 190.065 247.121 190.08 247.717 190.255C247.687 189.767 247.846 189.122 247.594 188.818C246.857 187.929 245.999 187.124 245.114 186.375C239.041 181.232 232.565 176.653 225.306 172.301ZM258.387 318.175C258.483 318.068 258.579 317.96 258.676 317.853C257.517 316.839 256.325 315.862 255.206 314.806C248.112 308.102 241.054 301.357 233.921 294.695C233.123 293.949 231.927 293.629 230.915 293.112C230.808 293.303 230.701 293.495 230.595 293.686C239.183 302.617 248.564 310.646 258.387 318.175ZM309.595 160.249C288.609 141.058 266.61 123.191 241.886 108.879C266.297 123.599 288.117 141.701 309.595 160.249ZM310.934 176.58C311.038 176.476 311.141 176.373 311.244 176.27C310.421 174.811 309.604 173.348 308.765 171.898C308.695 171.779 308.435 171.784 308.327 171.672C306.867 170.137 305.417 168.594 303.969 167.048C303.491 166.538 303.024 166.019 302.559 165.496C301.713 164.541 300.94 163.507 300.014 162.637C298.815 161.511 297.503 160.502 296.224 159.462C295.114 158.557 294.001 157.654 292.85 156.803C292.285 156.385 291.643 156.061 291.01 155.746C290.809 155.645 290.404 155.605 290.31 155.717C290.177 155.877 290.141 156.267 290.248 156.45C290.442 156.78 290.763 157.04 291.046 157.312C292.764 158.956 294.507 160.573 296.199 162.242C297.289 163.317 298.273 164.499 299.362 165.575C300.942 167.136 302.572 168.646 304.183 170.176C306.432 172.311 308.683 174.445 310.934 176.58ZM220.431 312.527C220.37 312.58 220.308 312.633 220.247 312.685C220.97 313.751 221.587 314.907 222.433 315.863C226.555 320.521 231.3 324.522 235.972 328.604C237.75 330.157 239.283 331.988 241.007 333.607C242.05 334.587 243.185 336.002 244.389 336.122C245.497 336.233 246.098 336.678 246.743 337.243C247.348 337.773 247.676 338.635 248.305 339.12C249.053 339.697 249.989 340.029 250.847 340.464C251.067 340.576 251.293 340.675 251.517 340.779C251.51 340.468 251.631 340.031 251.471 339.865C250.813 339.184 250.08 338.572 249.354 337.958C244.497 333.852 239.567 329.828 234.791 325.629C229.926 321.35 225.212 316.902 220.431 312.527ZM243.614 291.656C247.149 297.752 271.777 319.953 280.652 322.739C280.182 322.364 279.884 322.119 279.58 321.884C273.525 317.197 267.333 312.677 261.456 307.777C256.015 303.242 250.526 298.709 246.03 293.147C245.553 292.557 244.675 292.293 243.614 291.656ZM211.355 286.167C223.049 300.128 237.736 314.467 253.355 326.343C239.267 312.866 224.435 298.678 211.355 286.167ZM251.597 335.403C244.745 329.326 237.849 323.495 231.286 317.31C224.671 311.078 218.387 304.496 211.958 298.066C211.842 298.183 211.728 298.299 211.612 298.416C213.381 303.461 244.943 332.692 251.597 335.403ZM325.378 220.6C325.483 221.515 325.588 222.431 325.732 223.691C326.305 222.467 326.685 221.654 327.018 220.944C326.461 220.83 325.892 220.713 325.321 220.596C326.9 219.878 327.311 219.03 326.123 217.165C325.851 218.377 325.602 219.486 325.378 220.6ZM114.534 200.912C114.244 200.554 113.953 200.198 113.665 199.84C113.389 199.498 113.141 199.127 112.831 198.817C112.583 198.568 112.091 198.156 111.998 198.223C111.094 198.868 110.487 199.208 109.888 197.771C109.625 197.143 108.581 196.771 107.822 196.437C106.804 195.988 107.048 195.628 107.711 195.068C107.917 194.893 107.899 194.453 107.983 194.135C107.758 194.175 107.504 194.304 107.314 194.24C106.483 193.962 105.448 193.844 104.891 193.273C102.792 191.12 100.985 188.673 98.8185 186.597C95.5672 183.483 91.9791 180.719 88.7594 177.575C82.3175 171.284 74.5849 166.33 69.253 158.899C67.0894 155.884 64.7524 152.914 63.1325 149.611C61.5683 146.42 60.7269 142.855 59.7486 139.404C58.1704 133.841 56.8675 128.212 56.9913 122.37C57.1564 114.596 57.8889 106.93 61.2662 99.7523C62.6301 96.8549 63.7156 93.8188 65.2113 90.9961C66.2498 89.0354 67.4776 86.9742 69.1459 85.5922C71.9958 83.2306 73.9104 80.2129 76.0116 77.3143C82.9063 67.8041 91.9295 61.0345 102.605 56.3196C109.005 53.4925 115.579 51.1985 122.374 49.5316C131.476 47.2987 140.695 46.5504 150.016 47.5428C154.902 48.0627 159.757 48.732 164.371 50.6962C169.359 52.8194 174.592 54.3919 179.502 56.6714C187.573 60.4176 195.451 64.62 201.859 70.9575C206.509 75.5569 210.841 80.4747 215.375 85.1926C217.986 87.9104 220.743 90.4863 223.39 93.1698C228.965 98.8209 235.913 102.551 242.591 106.569C256.816 115.131 270.48 124.442 283.252 135.055C290.97 141.47 298.942 147.602 306.38 154.325C316.417 163.397 324.497 173.995 328.669 187.103C330.875 194.032 331.505 201.216 331.502 208.477C331.5 215.044 331.947 221.619 331.688 228.171C331.491 233.111 332.41 237.856 333.106 242.649C333.593 246.009 334.448 249.321 335.252 252.628C337.305 261.081 341.737 268.509 345.457 276.251C348.277 282.12 350.774 288.144 353.371 294.117C353.522 294.465 353.263 294.987 353.214 295.43C353.201 295.546 353.218 295.711 353.29 295.783C354.401 296.883 354.653 298.193 354.644 299.74C354.637 300.763 355.466 301.77 355.574 302.82C356.069 307.619 356.81 312.436 356.747 317.238C356.691 321.409 355.952 325.633 355.006 329.715C354.043 333.866 352.69 337.968 351.078 341.915C349.442 345.919 347.402 349.773 345.321 353.573C341.194 361.11 335.731 367.642 329.131 373.081C322.396 378.632 314.75 382.773 306.552 385.799C303.312 386.996 299.981 387.976 296.642 388.872C294.881 389.345 293.005 389.38 291.198 389.699C289.95 389.919 288.742 390.365 287.494 390.579C280.385 391.797 273.294 391.357 266.21 390.297C264.942 390.107 263.656 390.042 262.381 389.896C261.991 389.852 261.597 389.765 261.227 389.636C257.927 388.489 254.639 387.308 251.328 386.195C250.827 386.026 250.134 386.341 249.685 386.118C248.242 385.403 246.905 384.448 245.171 384.645C245.31 383.364 244.031 383.991 244.011 383.952C243 382.073 240.957 383.146 239.604 382.36C239.071 382.05 238.361 381.931 237.978 381.503C237.556 381.033 235.927 381.471 236.751 380.01C236.143 379.865 235.534 379.729 234.929 379.573C234.216 379.388 233.506 379.187 232.886 378.659C233.228 378.712 233.57 378.764 233.911 378.817C223.97 372.761 214.207 366.521 206.693 357.386C206.546 357.55 206.399 357.714 206.253 357.878C210.797 362.171 215.342 366.464 219.887 370.757C219.879 370.779 219.872 370.801 219.865 370.822C217.877 369.211 215.824 367.673 213.911 365.975C205.392 358.415 199.025 349.216 194.129 339.03C190.642 331.774 187.641 324.285 184.391 316.913C182.718 313.118 180.926 309.375 179.29 305.564C178.57 303.89 178.22 302.057 177.498 300.385C176.521 298.124 175.324 295.958 174.263 293.732C173.373 291.867 172.21 290.036 171.84 288.064C171.681 287.216 171.298 286.906 170.967 286.342C170.77 286.006 170.999 285.435 170.977 284.973C170.966 284.751 170.799 284.34 170.729 284.346C169.487 284.444 169.447 283.446 169.045 282.677C167.251 279.247 165.433 275.829 163.532 272.459C161.156 268.25 158.815 264.015 156.233 259.934C153.333 255.35 150.256 250.872 147.114 246.448C144.047 242.127 140.83 237.911 137.625 233.689C134.998 230.229 132.257 226.855 129.639 223.389C128.582 221.988 127.767 220.406 126.742 218.978C126.317 218.384 125.403 218.086 125.105 217.464C124.339 215.87 122.636 214.929 122.282 213C122.158 212.325 120.896 211.929 120.378 211.237C119.834 210.51 119.561 209.579 119.161 208.741C119.102 208.615 119.016 208.439 118.908 208.408C117.366 207.981 116.956 206.986 117.527 206.008C116.85 205.417 116.248 204.939 115.706 204.4C115.203 203.903 114.842 203.231 114.28 202.831C113.034 201.947 113.753 201.456 114.555 200.923C114.496 201.371 114.22 202.076 114.393 202.213C115.017 202.705 115.785 203.015 116.515 203.363C116.603 203.404 116.894 203.261 116.901 203.185C116.92 202.987 116.904 202.691 116.777 202.589C116.05 202.005 115.286 201.465 114.534 200.912Z" fill="#FB8600"/>
</svg>
