<svg width="170" height="359" viewBox="0 0 170 359" fill="none" xmlns="http://www.w3.org/2000/svg">
<path fill-rule="evenodd" clip-rule="evenodd" d="M-194.535 242.71C-194.536 242.541 -194.536 242.372 -194.537 242.203C-193.801 242.177 -193.066 242.151 -192.33 242.125C-192.329 242.325 -192.328 242.526 -192.326 242.725C-193.063 242.721 -193.799 242.715 -194.535 242.71ZM-32.4497 204.997C-32.3859 205.166 -32.3213 205.336 -32.2573 205.506C-33.0238 205.857 -33.7871 206.215 -34.5636 206.542C-34.6277 206.569 -34.8423 206.405 -34.8786 206.293C-34.9257 206.153 -34.9059 205.859 -34.8377 205.833C-34.0501 205.532 -33.2483 205.27 -32.4497 204.997ZM-32.5219 228.614C-32.5686 228.487 -32.6146 228.359 -32.6618 228.231C-31.5574 227.827 -30.4525 227.424 -29.3486 227.021C-29.2913 227.177 -29.2354 227.334 -29.1781 227.491L-32.5219 228.614ZM8.24218 77.4355L8.26875 77.5415C7.24494 78.134 6.22382 78.7295 5.19791 79.3189C5.03486 79.4118 4.85892 79.499 4.6783 79.5385C4.6203 79.5521 4.52601 79.4039 4.44888 79.3293C4.60445 79.205 4.74353 79.0431 4.919 78.9609C6.02163 78.4423 7.13332 77.942 8.24218 77.4355ZM-78.0074 200.419C-78.045 200.306 -78.0816 200.191 -78.1195 200.077C-76.7736 199.626 -75.4291 199.175 -74.0832 198.724C-74.0443 198.842 -74.0049 198.961 -73.9657 199.08C-75.3128 199.527 -76.6602 199.973 -78.0074 200.419ZM-160.319 280.47C-160.318 280.655 -160.317 280.839 -160.317 281.024C-161.546 280.946 -162.774 280.87 -164.003 280.792C-163.989 280.584 -163.974 280.376 -163.958 280.168C-162.745 280.268 -161.531 280.369 -160.319 280.47ZM-26.6499 271.011C-26.655 270.81 -26.6604 270.608 -26.665 270.407C-25.8294 270.218 -24.9983 270.001 -24.1535 269.865C-23.9797 269.838 -23.715 270.087 -23.5784 270.272C-23.5349 270.332 -23.752 270.729 -23.8796 270.746C-24.7985 270.867 -25.7255 270.93 -26.6499 271.011ZM-32.2745 123.492C-32.2254 123.652 -32.1763 123.812 -32.1286 123.972C-34.0775 124.628 -36.0267 125.285 -37.976 125.941C-38.0232 125.806 -38.0704 125.671 -38.1176 125.536C-36.1698 124.855 -34.2224 124.174 -32.2745 123.492ZM3.15302 115.546C3.07469 115.379 2.99581 115.212 2.91749 115.045L7.162 112.798C7.24993 112.977 7.33643 113.156 7.42408 113.335C6.00058 114.072 4.57654 114.809 3.15302 115.546ZM-4.71287 162.455C-4.67486 162.614 -4.63628 162.773 -4.59826 162.933C-6.22499 163.491 -7.8509 164.049 -9.47734 164.606C-9.53722 164.405 -9.59793 164.203 -9.65781 164.002C-8.00951 163.487 -6.36091 162.971 -4.71287 162.455ZM-10.6496 265.267L-10.4635 265.656C-11.6691 266.091 -12.866 266.551 -14.0884 266.935C-14.2657 266.991 -14.558 266.68 -14.7975 266.538C-14.6237 266.376 -14.4746 266.118 -14.2738 266.069C-13.0724 265.775 -11.8588 265.53 -10.6496 265.267ZM-43.5176 239.965C-43.4958 240.071 -43.474 240.178 -43.4521 240.282C-45.5546 240.77 -47.6574 241.258 -49.761 241.745C-49.7986 241.564 -49.8367 241.383 -49.8737 241.202C-47.7555 240.79 -45.637 240.378 -43.5176 239.965ZM-143.082 272.021C-143.1 272.177 -143.118 272.333 -143.137 272.489L-152.204 273.229C-152.217 273.065 -152.229 272.903 -152.243 272.741C-149.189 272.502 -146.136 272.261 -143.082 272.021ZM-139.731 156.692C-139.677 157.871 -140.733 159.169 -141.592 159.167C-141.851 159.167 -142.106 159.363 -142.371 159.447C-142.724 159.56 -143.085 159.652 -143.443 159.753C-143.312 159.392 -143.289 158.877 -143.031 158.7C-142.01 157.997 -140.916 157.399 -139.731 156.692ZM-36.444 179.988C-36.5052 179.88 -36.5662 179.772 -36.6268 179.663L-29.3958 176.36C-29.3487 176.475 -29.3024 176.59 -29.2559 176.705L-36.444 179.988ZM-26.9896 111.776C-27.0155 111.722 -27.0414 111.668 -27.0664 111.615L-13.0681 105.221C-13.043 105.274 -13.0177 105.328 -12.9924 105.382L-26.9896 111.776ZM-8.12524 264.921L-8.4071 264.252C-6.61633 263.289 -4.83443 262.31 -3.02309 261.387C-2.82755 261.287 -2.46711 261.508 -2.18344 261.581C-2.26403 261.857 -2.26609 262.303 -2.43929 262.384C-4.31966 263.262 -6.22549 264.084 -8.12524 264.921ZM0.0346376 39.6325C-0.00468687 39.5657 -0.0442927 39.4985 -0.083062 39.4315C4.58413 38.0146 9.24711 36.5824 13.9257 35.2039C14.4312 35.055 15.0292 35.2222 15.584 35.2426C15.1362 35.3174 14.6881 35.3903 14.2402 35.4665C14.186 35.4763 14.1357 35.5081 14.0817 35.5246C9.39925 36.8946 4.71709 38.2638 0.0346376 39.6325ZM-173.394 255.735C-175.343 256.927 -181.96 257.027 -182.886 255.964C-179.77 255.889 -176.795 255.816 -173.394 255.735ZM-176.191 262.238C-177.404 262.496 -178.214 260.145 -179.471 262.014C-179.633 261.871 -179.793 261.724 -179.96 261.587C-180.043 261.519 -180.135 261.434 -180.233 261.417C-180.431 261.383 -180.802 261.419 -180.81 261.375C-180.855 261.125 -180.915 260.726 -180.781 260.624C-180.313 260.265 -179.794 259.817 -179.248 259.744C-177.344 259.492 -176.906 259.904 -176.191 262.238ZM47.1086 119.571C47.1893 119.835 47.27 120.102 47.3507 120.367C43.4363 121.675 39.5222 122.983 35.608 124.291C35.566 124.175 35.5234 124.059 35.481 123.944C39.3571 122.486 43.2328 121.028 47.1086 119.571ZM-29.6851 183.481C-29.5945 183.663 -29.5034 183.845 -29.4125 184.027C-34.962 186.785 -40.5117 189.541 -46.0614 192.298C-40.5815 189.401 -35.421 185.866 -29.6851 183.481ZM-38.6267 215.462C-38.6938 215.324 -38.7604 215.187 -38.8273 215.049C-38.4437 214.834 -38.0669 214.607 -37.6763 214.405C-34.9832 213.022 -32.3012 211.617 -29.5821 210.288C-29.0929 210.049 -28.0663 209.898 -27.9432 210.102C-27.4287 210.953 -27.9142 211.544 -28.8099 211.868C-32.0864 213.055 -35.3547 214.262 -38.6267 215.462ZM-195.447 286.239C-195.329 286.052 -195.211 285.866 -195.093 285.679L-178.874 296.456C-180.319 295.939 -181.693 295.234 -183.088 294.574C-183.47 294.392 -184.131 293.495 -184.171 294.843C-184.354 294.821 -184.58 294.857 -184.709 294.762C-184.881 294.636 -185.097 294.252 -185.089 294.246C-184.126 293.503 -185.117 293.383 -185.464 293.142C-188.785 290.83 -192.118 288.537 -195.447 286.239ZM19.6137 101.51C19.6657 101.627 19.7175 101.744 19.7689 101.861L-4.56053 112.145C-4.66254 111.894 -4.76458 111.642 -4.86714 111.39C3.29283 108.097 11.4537 104.803 19.6137 101.51ZM61.9792 192.999C62.0523 193.1 62.1248 193.202 62.1976 193.305C61.533 194.786 60.4992 196.216 60.2879 197.759C59.9426 200.28 58.8536 202.426 57.7767 204.621C57.6984 204.778 57.4359 204.845 57.2589 204.954C57.1673 204.731 56.9593 204.482 57.002 204.287C57.8132 200.568 58.0725 196.629 61.0679 193.755C61.3516 193.483 61.6741 193.25 61.9792 192.999ZM51.2894 110.815C42.5576 113.608 34.3241 116.242 26.0909 118.875C34.0075 115.202 42.1133 112.13 51.2894 110.815ZM-0.980372 138.538C-0.619014 138.448 -0.355905 138.347 -0.0858022 138.324C0.337515 138.29 0.765162 138.307 1.19132 138.303C0.928421 138.682 0.751202 139.217 0.389245 139.418C-4.06629 141.896 -8.54591 144.332 -13.0348 146.748C-13.2668 146.872 -13.7782 146.836 -13.9205 146.67C-14.0711 146.494 -14.0574 145.893 -13.9037 145.789C-12.8884 145.1 -11.8437 144.441 -10.7544 143.875C-9.54822 143.249 -8.24001 142.811 -7.05512 142.149C-4.96961 140.984 -2.94395 139.712 -0.980372 138.538ZM31.6712 124.266C31.2215 124.577 30.8081 124.968 30.3174 125.188C24.4546 127.822 18.586 130.441 12.6996 133.021C12.2977 133.198 11.7488 133.039 11.2678 133.037C11.5734 132.693 11.8138 132.228 12.1945 132.023C18.36 128.699 24.8699 126.209 31.6712 124.266ZM-62.9482 218.893C-63.0458 218.61 -63.1428 218.325 -63.2403 218.042C-60.8147 217.155 -58.3838 216.281 -55.9658 215.375C-54.8664 214.963 -53.7665 214.538 -52.7148 214.022C-51.3026 213.329 -49.9887 212.413 -48.5392 211.822C-45.9979 210.783 -43.3556 209.993 -40.8164 208.95C-39.5935 208.448 -38.5291 207.57 -37.3494 206.947C-37.0668 206.797 -36.6089 206.981 -36.2318 207.011C-36.2903 207.245 -36.2718 207.589 -36.4206 207.693C-37.305 208.313 -38.1822 208.973 -39.1485 209.439C-40.7106 210.192 -42.3507 210.782 -43.9384 211.486C-45.8612 212.338 -47.7436 213.283 -49.6781 214.104C-51.7456 214.981 -53.8363 215.81 -55.9492 216.568C-58.2627 217.398 -60.6134 218.123 -62.9482 218.893ZM-60.56 234.051C-59.9427 233.654 -59.3647 233.045 -58.6787 232.876C-52.1539 231.266 -45.598 229.782 -39.0783 228.152C-36.0265 227.388 -33.0367 226.375 -30.0104 225.506C-29.7676 225.437 -29.4561 225.611 -29.1758 225.671C-29.305 225.906 -29.3804 226.216 -29.5763 226.356C-29.8902 226.582 -30.2714 226.739 -30.6463 226.849C-35.0146 228.137 -39.3792 229.437 -43.7604 230.678C-46.1693 231.361 -48.5848 232.055 -51.0381 232.535C-54.1484 233.144 -57.2996 233.543 -60.56 234.051ZM-135.364 292.083C-125.65 289.348 -115.935 286.614 -106.22 283.878C-115.3 288.908 -125.182 291.039 -135.364 292.083ZM-58.3479 226.241L-58.5144 225.657C-58.0876 225.485 -57.6744 225.25 -57.2311 225.153C-55.202 224.707 -53.1299 224.422 -51.1357 223.86C-43.6111 221.738 -36.1124 219.526 -28.5978 217.372C-28.3516 217.301 -28.0318 217.484 -27.7464 217.548C-27.9058 217.806 -28.0078 218.209 -28.2335 218.298C-30.7293 219.274 -33.1881 220.41 -35.7651 221.099C-41.3342 222.59 -46.9604 223.873 -52.5773 225.182C-54.4798 225.625 -56.4226 225.893 -58.3479 226.241ZM55.9713 102.356C42.1237 105.495 28.8429 110.406 15.5689 115.335C28.4706 109.244 41.7198 104.236 55.9713 102.356ZM-55.8992 222.589C-55.1667 222.14 -54.875 221.836 -54.5386 221.776C-51.4525 221.223 -49.0091 218.986 -45.6094 218.91C-43.0671 218.852 -40.5434 217.429 -38.0423 216.529C-37.514 216.339 -37.1194 215.779 -36.663 215.389C-35.2679 217.197 -34.5961 213.713 -33.0634 214.877C-32.7456 215.118 -31.4135 213.86 -30.4693 213.507C-29.9402 213.31 -29.247 213.552 -28.6275 213.596C-28.8258 214.044 -28.9024 214.703 -29.245 214.901C-30.246 215.476 -31.331 215.93 -32.422 216.323C-39.9094 219.02 -47.5766 221.048 -55.8992 222.589ZM26.0652 97.468C26.1183 97.6022 26.1706 97.736 26.2237 97.8702C24.7838 98.4159 23.3251 98.9142 21.9081 99.513C12.9182 103.316 3.94895 107.169 -5.06226 110.92C-6.07079 111.34 -7.30327 111.221 -8.432 111.352C-8.46523 111.136 -8.49819 110.919 -8.53086 110.703C2.63595 105.335 14.2315 101.09 26.0652 97.468ZM18.8663 263.333C-7.50162 273.981 -34.3572 283.035 -62.5233 287.807C-34.5078 282.544 -7.73837 273.207 18.8663 263.333ZM25.8272 248.499C25.8881 248.632 25.9493 248.765 26.0097 248.897C24.7286 249.977 23.4513 251.062 22.1588 252.128C22.0518 252.215 21.81 252.119 21.6695 252.187C19.7658 253.114 17.868 254.054 15.971 254.996C15.345 255.307 14.7253 255.63 14.1077 255.958C12.9811 256.557 11.8955 257.255 10.7238 257.747C9.20662 258.383 7.62545 258.871 6.06342 259.398C4.70694 259.857 3.34857 260.315 1.97239 260.711C1.29721 260.905 0.582745 260.983 -0.119916 261.058C-0.343643 261.082 -0.737123 260.979 -0.786717 260.84C-0.855379 260.644 -0.75235 260.267 -0.588396 260.132C-0.291146 259.891 0.100043 259.759 0.46096 259.603C2.64444 258.663 4.84283 257.757 7.01109 256.784C8.4079 256.158 9.74285 255.394 11.1391 254.767C13.1651 253.856 15.2205 253.01 17.2645 252.14C20.1177 250.925 22.9722 249.713 25.8272 248.499ZM-11.4708 89.4978C-11.5099 89.4269 -11.5491 89.3561 -11.5883 89.2852C-10.5388 88.5396 -9.5562 87.6716 -8.42988 87.0717C-2.94042 84.1472 2.90378 82.0561 8.7076 79.8646C10.9162 79.0305 12.9923 77.8508 15.1735 76.9358C16.4935 76.382 18.0511 75.4528 19.2207 75.761C20.2977 76.044 21.0164 75.8373 21.8177 75.5334C22.5706 75.2475 23.1791 74.5545 23.9371 74.3202C24.8398 74.041 25.8336 74.0568 26.7887 73.949C27.0339 73.9209 27.2809 73.9071 27.5267 73.8877C27.4112 74.1774 27.3725 74.6292 27.1645 74.7284C26.3097 75.1365 25.4096 75.4541 24.5145 75.7756C18.5287 77.9259 12.5035 79.9735 6.56171 82.2396C0.508377 84.5484 -5.46322 87.0692 -11.4708 89.4978ZM2.95841 117.154C8.40026 112.677 39.2334 100.481 48.5228 100.971C47.9507 101.158 47.5867 101.283 47.2191 101.398C39.9086 103.673 32.5272 105.746 25.3084 108.283C18.6256 110.631 11.8991 112.961 5.74244 116.601C5.08968 116.986 4.1747 116.928 2.95841 117.154ZM-29.1857 111.025C-13.3509 102.03 5.42118 93.7264 24.2053 88.057C6.29611 95.7614 -12.5584 103.873 -29.1857 111.025ZM25.7236 78.9532C17.1796 82.2529 8.68121 85.3072 0.370765 88.8089C-8.00456 92.3374 -16.1926 96.3089 -24.463 100.086C-24.5306 99.9371 -24.5973 99.788 -24.6646 99.6378C-21.2446 95.5291 18.5418 79.1681 25.7236 78.9532ZM54.7417 212.299C55.1602 211.479 55.5779 210.658 56.1532 209.527C56.2626 210.874 56.3344 211.769 56.3981 212.551C55.837 212.463 55.2624 212.374 54.6873 212.283C55.915 213.508 56.0043 214.446 54.2391 215.779C54.4083 214.548 54.5627 213.422 54.7417 212.299ZM-149.692 157.077C-150.089 157.311 -150.486 157.543 -150.881 157.778C-151.259 158.003 -151.621 158.263 -152.02 158.445C-152.339 158.591 -152.944 158.806 -153.009 158.711C-153.63 157.79 -154.08 157.26 -155.143 158.397C-155.609 158.894 -156.717 158.878 -157.544 158.925C-158.656 158.99 -158.553 159.413 -158.127 160.169C-157.995 160.405 -158.166 160.81 -158.199 161.138C-158.395 161.022 -158.588 160.813 -158.789 160.806C-159.664 160.777 -160.676 160.525 -161.397 160.866C-164.116 162.15 -166.664 163.811 -169.419 164.999C-173.553 166.781 -177.881 168.117 -181.997 169.938C-190.231 173.582 -199.207 175.521 -206.799 180.621C-209.879 182.69 -213.107 184.656 -215.779 187.185C-218.359 189.628 -220.393 192.675 -222.516 195.567C-225.938 200.228 -229.126 205.047 -231.051 210.563C-233.613 217.905 -235.605 225.344 -234.948 233.249C-234.683 236.441 -234.726 239.665 -234.311 242.832C-234.023 245.032 -233.593 247.392 -232.513 249.27C-230.668 252.479 -229.928 255.975 -228.972 259.425C-225.835 270.745 -219.746 280.241 -211.39 288.388C-206.382 293.273 -201.024 297.72 -195.24 301.656C-187.491 306.928 -179.114 310.851 -170.034 313.178C-165.275 314.398 -160.492 315.467 -155.483 315.239C-150.067 314.992 -144.614 315.347 -139.217 314.927C-130.346 314.237 -121.496 313.052 -113.278 309.353C-107.314 306.668 -101.537 303.574 -95.6399 300.737C-92.2435 299.103 -88.7604 297.653 -85.3429 296.063C-78.1451 292.716 -70.331 291.649 -62.6701 290.217C-46.3503 287.166 -30.2937 283.216 -14.6192 277.734C-5.14598 274.42 4.46574 271.46 13.7842 267.76C26.3584 262.767 37.6323 255.659 46.1219 244.835C50.6096 239.114 53.7098 232.602 56.2439 225.798C58.5361 219.645 61.253 213.64 63.2989 207.411C64.8409 202.714 67.3594 198.588 69.6862 194.34C71.3173 191.363 73.2757 188.558 75.184 185.74C80.0615 178.537 86.809 173.127 93.0001 167.172C97.6929 162.659 102.137 157.887 106.657 153.197C106.92 152.924 106.86 152.344 106.969 151.912C106.997 151.798 107.071 151.65 107.164 151.608C108.589 150.966 109.283 149.826 109.815 148.373C110.166 147.413 111.295 146.759 111.763 145.813C113.903 141.489 116.281 137.234 117.899 132.714C119.304 128.786 120.088 124.57 120.628 120.414C121.175 116.188 121.341 111.872 121.209 107.61C121.076 103.288 120.511 98.9637 119.889 94.6755C118.656 86.1723 115.819 78.1431 111.536 70.7405C107.165 63.1865 101.447 56.635 94.8237 50.935C92.2055 48.6811 89.427 46.5993 86.6119 44.593C85.1268 43.5344 83.3816 42.8467 81.7992 41.9159C80.7077 41.2736 79.7316 40.4338 78.6368 39.7978C72.4011 36.1724 65.6032 34.107 58.5954 32.6251C57.3414 32.3595 56.1137 31.9719 54.8676 31.6624C54.4871 31.5679 54.0879 31.5113 53.6955 31.5028C50.2031 31.4246 46.7097 31.3831 43.2186 31.2688C42.6898 31.2516 42.1503 30.7149 41.6516 30.7665C40.0504 30.9319 38.4633 31.3599 36.9082 30.5695C36.5902 31.8181 35.6114 30.7843 35.5784 30.8137C33.9749 32.2207 32.4353 30.5016 30.8934 30.7655C30.2853 30.8692 29.5786 30.7331 29.0704 31.0001C28.5107 31.2933 27.1376 30.314 27.3991 31.9703C26.7791 31.8938 26.1604 31.8083 25.5388 31.7434C24.8062 31.667 24.0713 31.6081 23.3056 31.8854C23.6441 31.9554 23.9829 32.026 24.3212 32.0954C12.8904 34.2962 1.56302 36.7323 -8.66994 42.666C-8.74998 42.4609 -8.83032 42.2566 -8.90955 42.0518C-3.15192 39.6171 2.60604 37.1817 8.36448 34.7474C8.36557 34.7244 8.36663 34.7014 8.36742 34.6792C5.94102 35.4939 3.48003 36.2179 1.09458 37.1402C-9.52875 41.2477 -18.7089 47.642 -26.8553 55.4757C-32.6577 61.0557 -38.0868 67.0243 -43.707 72.7955C-46.6006 75.7666 -49.5875 78.6486 -52.4523 81.6469C-53.7111 82.9641 -54.6796 84.5596 -55.9406 85.8736C-57.6466 87.651 -59.5242 89.2623 -61.2964 90.9771C-62.7818 92.4141 -64.5113 93.723 -65.5475 95.4409C-65.9929 96.1802 -66.46 96.337 -66.9664 96.7499C-67.2685 96.9957 -67.2532 97.6107 -67.4358 98.0361C-67.5235 98.2401 -67.8235 98.5669 -67.8872 98.5366C-69.0164 98.0105 -69.4026 98.9318 -70.0483 99.5121C-72.9275 102.099 -75.8252 104.667 -78.7842 107.16C-82.4804 110.274 -86.1537 113.424 -89.9987 116.345C-94.318 119.627 -98.7661 122.747 -103.255 125.795C-107.639 128.772 -112.126 131.599 -116.604 134.434C-120.275 136.758 -124.022 138.962 -127.686 141.295C-129.166 142.238 -130.482 143.436 -131.941 144.415C-132.548 144.823 -133.508 144.783 -134.005 145.261C-135.279 146.487 -137.203 146.775 -138.209 148.459C-138.561 149.048 -139.882 148.977 -140.609 149.445C-141.373 149.937 -141.954 150.713 -142.621 151.359C-142.721 151.456 -142.863 151.591 -142.975 151.582C-144.569 151.443 -145.301 152.232 -145.108 153.348C-145.948 153.666 -146.679 153.903 -147.376 154.218C-148.02 154.508 -148.593 155.012 -149.26 155.191C-150.736 155.583 -150.234 156.295 -149.668 157.074C-149.568 156.634 -149.58 155.877 -149.37 155.809C-148.614 155.566 -147.785 155.544 -146.98 155.473C-146.883 155.465 -146.66 155.701 -146.68 155.774C-146.732 155.967 -146.85 156.239 -147.004 156.29C-147.89 156.583 -148.795 156.822 -149.692 157.077Z" fill="#FB8600"/>
</svg>
