<svg width="277" height="151" viewBox="0 0 277 151" fill="none" xmlns="http://www.w3.org/2000/svg">
<path fill-rule="evenodd" clip-rule="evenodd" d="M74.1587 122.315C42.6417 117.308 25.5548 109.102 18.6163 95.5906C17.2128 92.7994 15.8142 91.2122 13.2544 89.3725C5.67575 78.0005 -2.48465 63.2551 12.287 51.3894C27.8585 38.9223 76.2451 29.7398 129.713 29.1203C137.369 29.0204 149.723 28.6586 157.117 28.2611C249.247 23.4023 285.167 50.8062 261.865 78.2468C247.684 94.9992 224.185 105.262 183.313 112.763C144.392 119.86 90.2958 115.772 49.7802 104.103C39.1916 101.053 38.3784 103.148 41.654 105.09C53.2058 111.985 82.1959 118.475 111.612 120.299C137.856 121.941 149.932 122.374 168.819 119.129C176.199 117.873 181.202 121.286 169.93 123.808C157.973 126.395 108.404 127.755 74.1587 122.315ZM248.044 48.4029C233.878 38.1857 204.655 33.9178 158.819 35.4746C5.64035 40.695 25.6294 84.8184 25.6294 84.8184C25.7746 84.8499 79.5702 114.696 173.731 107.526C220.062 104.045 290.464 79.0109 248.044 48.4029ZM62.9859 42.6561C78.0971 38.1889 59.9148 41.0795 37.3354 46.7033C-4.75237 57.175 13.5648 74.5459 15.6627 77.813C16.0097 61.2356 41.8397 48.8855 62.9859 42.6561Z" fill="#FF450D"/>
</svg>
