<svg width="219" height="137" viewBox="0 0 219 137" fill="none" xmlns="http://www.w3.org/2000/svg">
<path fill-rule="evenodd" clip-rule="evenodd" d="M158.88 26.3176C183.507 31.133 196.895 38.7694 202.399 51.187C203.512 53.752 204.614 55.2151 206.624 56.9177C212.613 67.382 219.078 80.9381 207.629 91.6894C195.559 102.985 157.86 111.033 116.14 111.205C110.166 111.24 100.528 111.48 94.7602 111.79C22.8968 115.557 -5.31456 90.2106 12.6893 65.2671C23.6457 50.0388 41.9155 40.8191 73.7616 34.2548C104.088 28.0464 146.33 32.1873 178.023 43.1658C186.307 46.0359 186.927 44.124 184.358 42.3226C175.298 35.9262 152.633 29.7727 129.666 27.8866C109.175 26.19 99.7479 25.7043 85.0307 28.5355C79.2793 29.6304 75.3531 26.4695 84.1325 24.2446C93.4469 21.9655 132.12 21.0861 158.88 26.3176ZM23.671 92.6841C34.7928 102.14 57.6254 106.262 93.3846 105.175C212.886 101.527 196.997 60.9946 196.997 60.9946C196.883 60.9647 154.707 33.2506 81.2739 39.1193C45.1412 41.9636 -9.63376 64.3568 23.671 92.6841ZM168.122 99.3088C156.359 103.286 170.529 100.774 188.113 95.7936C220.888 86.5197 206.479 70.4857 204.821 67.4799C204.659 82.6501 184.583 93.7631 168.122 99.3088Z" fill="#FF450D"/>
</svg>
